<?xml version="1.0" encoding="UTF-8" standalone="no"?>
<!-- Created with Inkscape (http://www.inkscape.org/) -->

<svg
   xmlns:dc="http://purl.org/dc/elements/1.1/"
   xmlns:cc="http://creativecommons.org/ns#"
   xmlns:rdf="http://www.w3.org/1999/02/22-rdf-syntax-ns#"
   xmlns:svg="http://www.w3.org/2000/svg"
   xmlns="http://www.w3.org/2000/svg"
   xmlns:sodipodi="http://sodipodi.sourceforge.net/DTD/sodipodi-0.dtd"
   xmlns:inkscape="http://www.inkscape.org/namespaces/inkscape"
   viewBox="0 0 91.08412 28.577191"
   version="1.1"
   id="svg8"
   inkscape:version="0.92.3 (2405546, 2018-03-11)"
   sodipodi:docname="trashboard-stacked-logo.svg">
  <defs
     id="defs2" />
  <sodipodi:namedview
     id="base"
     pagecolor="#ffffff"
     bordercolor="#666666"
     borderopacity="1.0"
     inkscape:pageopacity="0.0"
     inkscape:pageshadow="2"
     inkscape:zoom="5.6"
     inkscape:cx="76.080425"
     inkscape:cy="-20.982735"
     inkscape:document-units="mm"
     inkscape:current-layer="g4675"
     showgrid="false"
     showguides="true"
     inkscape:lockguides="true"
     inkscape:window-width="1853"
     inkscape:window-height="1025"
     inkscape:window-x="67"
     inkscape:window-y="27"
     inkscape:window-maximized="1" />
  <metadata
     id="metadata5">
    <rdf:RDF>
      <cc:Work
         rdf:about="">
        <dc:format>image/svg+xml</dc:format>
        <dc:type
           rdf:resource="http://purl.org/dc/dcmitype/StillImage" />
        <dc:title></dc:title>
      </cc:Work>
    </rdf:RDF>
  </metadata>
  <g
     inkscape:label="Layer 1"
     inkscape:groupmode="layer"
     id="layer1"
     transform="translate(-59.490788,-109.01746)">
    <path
       style="opacity:1;fill:#d71c5b;fill-opacity:1;stroke:none;stroke-width:0;stroke-miterlimit:4;stroke-dasharray:none;stroke-opacity:1"
       d="m 72.719892,118.905 v 18.3348 h 2.551266 V 118.905 Z"
       id="path1003"
       inkscape:connector-curvature="0" />
    <path
       style="opacity:1;fill:#de1d25;fill-opacity:1;stroke:none;stroke-width:0;stroke-miterlimit:4;stroke-dasharray:none;stroke-opacity:1"
       d="m 66.979675,123.03912 v 14.20068 h 2.551263 v -14.20068 z"
       id="path1001"
       inkscape:connector-curvature="0" />
    <path
       style="opacity:1;fill:#f0572a;fill-opacity:1;stroke:none;stroke-width:0;stroke-miterlimit:4;stroke-dasharray:none;stroke-opacity:1"
       d="m 61.049804,128.16542 v 9.07438 h 2.551263 v -9.07438 z"
       id="path999"
       inkscape:connector-curvature="0" />
    <path
       style="opacity:1;fill:#912987;fill-opacity:1;stroke:none;stroke-width:0;stroke-miterlimit:4;stroke-dasharray:none;stroke-opacity:1"
       d="m 78.389831,131.77967 v 5.46013 h 2.551263 v -5.46013 z"
       id="rect845-3"
       inkscape:connector-curvature="0" />
    <g
       aria-label="TRASHBOARD"
       transform="matrix(0.37139347,0,0,0.37139347,-100.63338,-50.47759)"
       style="font-style:normal;font-variant:normal;font-weight:normal;font-stretch:normal;font-size:40px;line-height:1.25;font-family:'Samyak Tamil';-inkscape-font-specification:'Samyak Tamil';letter-spacing:0.10686106px;word-spacing:0px;fill:#f2f2f2;fill-opacity:1;stroke:none"
       id="flowRoot972">
      <g
         id="g4675"
         style="fill:#f2f2f2">
        <rect
           y="114.20396"
           x="59.490788"
           height="2.5513394"
           width="23.103794"
           id="rect845"
           style="opacity:1;fill:#f2f2f2;fill-opacity:1;stroke:#3b3b3d;stroke-width:0;stroke-miterlimit:4;stroke-dasharray:none;stroke-opacity:1"
           transform="matrix(2.6925622,0,0,2.6925622,270.96163,135.91405)" />
        <path
           inkscape:connector-curvature="0"
           id="path924"
           d="m 64.49898,114.62919 1.84264,-5.29167 h 9.30766 l 2.12612,5.95313 -3.2128,-0.66146 -0.89769,-2.59859 h -5.33892 l -1.08668,3.30729 z"
           style="fill:#f2f2f2;fill-opacity:1;stroke:#3b3b3d;stroke-width:0;stroke-linecap:butt;stroke-linejoin:miter;stroke-miterlimit:4;stroke-dasharray:none;stroke-opacity:1"
           transform="matrix(2.6925622,0,0,2.6925622,270.96163,135.91405)" />
        <path
           inkscape:connector-curvature="0"
           id="path4599"
           style="font-style:normal;font-variant:normal;font-weight:bold;font-stretch:normal;font-family:'Avenir Next LT Pro';-inkscape-font-specification:'Avenir Next LT Pro Bold';letter-spacing:0.10686106px;fill:#f0572a;fill-opacity:1;stroke-width:1.25717175"
           d="m 525.90202,437.69738 v -7.34188 h -28.71381 v 7.34188 h 10.05738 v 28.26122 h 8.59905 v -28.26122 z" />
        <path
           inkscape:connector-curvature="0"
           id="path4601"
           style="font-style:normal;font-variant:normal;font-weight:bold;font-stretch:normal;font-family:'Avenir Next LT Pro';-inkscape-font-specification:'Avenir Next LT Pro Bold';letter-spacing:0.10686106px;fill:#de1d25;fill-opacity:1;stroke-width:1.25717175"
           d="m 562.01036,465.9586 -9.30308,-15.23692 c 4.57611,-1.40802 7.39218,-4.82753 7.39218,-9.60479 0,-8.14647 -6.78873,-10.76139 -13.62775,-10.76139 h -13.57745 v 35.6031 h 8.44819 v -14.13061 h 2.91664 l 7.69389,14.13061 z m -10.40938,-24.69085 c 0,3.62066 -3.4698,4.32468 -6.23558,4.32468 h -4.07323 v -8.29734 h 4.5761 c 2.56464,0 5.73271,0.65373 5.73271,3.97266 z" />
        <path
           inkscape:connector-curvature="0"
           id="path4603"
           style="font-style:normal;font-variant:normal;font-weight:bold;font-stretch:normal;font-family:'Avenir Next LT Pro';-inkscape-font-specification:'Avenir Next LT Pro Bold';letter-spacing:0.10686106px;fill:#de1d3a;fill-opacity:1;stroke-width:1.25717175"
           d="m 607.47093,465.9586 -14.78434,-35.6031 h -8.34762 l -14.9352,35.6031 h 9.35335 l 2.61492,-6.98987 h 13.77861 l 2.76578,6.98987 z m -14.68377,-13.87917 h -8.95106 l 4.52582,-12.21971 z" />
        <path
           inkscape:connector-curvature="0"
           id="path4605"
           style="font-style:normal;font-variant:normal;font-weight:bold;font-stretch:normal;font-family:'Avenir Next LT Pro';-inkscape-font-specification:'Avenir Next LT Pro Bold';letter-spacing:0.10686106px;fill:#d71c5b;fill-opacity:1;stroke-width:1.25717175"
           d="m 636.32733,433.8253 c -3.11778,-2.86636 -7.6436,-4.37497 -11.66655,-4.37497 -6.63786,0 -13.7786,3.26866 -13.7786,11.16369 0,6.43672 4.5761,8.74992 9.10192,10.20824 4.67668,1.50861 7.39216,2.36348 7.39216,5.07898 0,2.86635 -2.31319,3.87208 -4.92811,3.87208 -2.81606,0 -5.98413,-1.60918 -7.69389,-3.77151 l -5.63212,5.7327 c 3.11778,3.26864 8.24704,5.12926 13.32601,5.12926 7.04017,0 13.62775,-3.67095 13.62775,-11.8677 0,-7.09045 -6.23557,-9.15221 -11.06311,-10.71111 -3.36923,-1.05602 -5.48127,-1.81032 -5.48127,-4.1738 0,-2.81607 2.76577,-3.57037 4.97839,-3.57037 2.21263,0 4.87784,1.20688 6.33615,3.06749 z" />
        <path
           inkscape:connector-curvature="0"
           id="path4607"
           style="letter-spacing:0.14248142px;fill:#912987;fill-opacity:1;stroke-width:1.25717175"
           d="m 674.50096,465.9586 v -35.6031 h -8.59905 v 13.47689 H 652.02273 V 430.3555 h -8.59905 v 35.6031 h 8.59905 v -14.88491 h 13.87918 v 14.88491 z" />
        <path
           inkscape:connector-curvature="0"
           id="path4609"
           style="letter-spacing:0.14248142px;fill:#f2f2f2;fill-opacity:1;stroke-width:1.25717175"
           d="m 524.93392,495.08164 c 0,-4.67668 -3.21836,-7.59333 -7.2916,-8.29734 v -0.10056 c 3.46979,-1.1566 5.83328,-3.77151 5.83328,-7.6939 0,-7.19101 -6.58758,-9.1522 -12.11913,-9.1522 h -14.1809 v 35.6031 h 14.1809 c 6.78872,0 13.57745,-2.61491 13.57745,-10.35909 z m -9.75565,-14.9352 c 0,2.51434 -1.86062,3.87209 -5.07898,3.87209 h -4.6264 v -7.34189 h 4.22411 c 3.62065,0 5.48127,1.05602 5.48127,3.4698 z m 1.15659,14.13061 c 0,3.46979 -3.31894,4.22409 -6.03443,4.22409 h -4.82754 v -8.14647 h 4.77726 c 3.67094,0 6.08471,0.95545 6.08471,3.92238 z" />
        <path
           inkscape:connector-curvature="0"
           id="path4611"
           style="letter-spacing:0.14248142px;fill:#f2f2f2;fill-opacity:1;stroke-width:1.25717175"
           d="m 567.86002,487.48831 c 0,-11.41511 -8.24705,-18.60613 -19.41074,-18.60613 -11.11339,0 -19.36043,7.19102 -19.36043,18.60613 0,11.26426 8.24704,18.90788 19.36043,18.90788 11.16369,0 19.41074,-7.64362 19.41074,-18.90788 z m -9.2025,0 c 0,6.43672 -4.22409,11.06312 -10.20824,11.06312 -5.98413,0 -10.15793,-4.6264 -10.15793,-11.06312 0,-6.23556 4.12351,-10.86195 10.15793,-10.86195 6.03443,0 10.20824,4.62639 10.20824,10.86195 z" />
        <path
           inkscape:connector-curvature="0"
           id="path4613"
           style="letter-spacing:0.14248142px;fill:#f2f2f2;fill-opacity:1;stroke-width:1.25717175"
           d="m 606.5581,505.44073 -14.78434,-35.6031 h -8.34761 l -14.9352,35.6031 h 9.35336 l 2.61491,-6.98988 h 13.7786 l 2.76578,6.98988 z m -14.68377,-13.87917 h -8.95105 l 4.52582,-12.21971 z" />
        <path
           inkscape:connector-curvature="0"
           id="path4615"
           style="letter-spacing:0.14248142px;fill:#f2f2f2;fill-opacity:1;stroke-width:1.25717175"
           d="m 638.7959,505.44073 -9.30307,-15.23692 c 4.5761,-1.40803 7.39217,-4.82754 7.39217,-9.60479 0,-8.14648 -6.78873,-10.76139 -13.62775,-10.76139 H 609.6798 v 35.6031 h 8.4482 v -14.13061 h 2.91663 l 7.69389,14.13061 z m -10.40938,-24.69086 c 0,3.62066 -3.4698,4.32468 -6.23558,4.32468 h -4.07323 v -8.29734 h 4.57611 c 2.56462,0 5.7327,0.65374 5.7327,3.97266 z" />
        <path
           inkscape:connector-curvature="0"
           id="path4617"
           style="letter-spacing:0.14248142px;fill:#f2f2f2;fill-opacity:1;stroke-width:1.25717175"
           d="m 676.39394,487.53861 c 0,-13.47689 -10.25853,-17.70098 -20.36619,-17.70098 h -12.87344 v 35.6031 h 13.27573 c 9.80595,0 19.9639,-5.38069 19.9639,-17.90212 z m -8.95107,0 c 0,7.94532 -5.68242,10.45967 -11.81742,10.45967 h -4.07323 v -20.81876 h 4.27439 c 5.93384,0 11.61626,2.36347 11.61626,10.35909 z" />
      </g>
    </g>
  </g>
</svg>
