<?xml version="1.0" encoding="UTF-8" standalone="no"?>
<!-- Created with Inkscape (http://www.inkscape.org/) -->

<svg
   xmlns:dc="http://purl.org/dc/elements/1.1/"
   xmlns:cc="http://creativecommons.org/ns#"
   xmlns:rdf="http://www.w3.org/1999/02/22-rdf-syntax-ns#"
   xmlns:svg="http://www.w3.org/2000/svg"
   xmlns="http://www.w3.org/2000/svg"
   xmlns:sodipodi="http://sodipodi.sourceforge.net/DTD/sodipodi-0.dtd"
   xmlns:inkscape="http://www.inkscape.org/namespaces/inkscape"
   width="31.537868mm"
   height="7.7241368mm"
   viewBox="0 0 31.537868 7.7241368"
   version="1.1"
   id="svg1506"
   inkscape:version="0.92.3 (2405546, 2018-03-11)"
   sodipodi:docname="trashboard-stacked-logo-fr.svg">
  <defs
     id="defs1500" />
  <sodipodi:namedview
     id="base"
     pagecolor="#ffffff"
     bordercolor="#666666"
     borderopacity="1.0"
     inkscape:pageopacity="0.0"
     inkscape:pageshadow="2"
     inkscape:zoom="0.35"
     inkscape:cx="-367.54373"
     inkscape:cy="-545.40321"
     inkscape:document-units="mm"
     inkscape:current-layer="layer1"
     showgrid="false"
     inkscape:window-width="1853"
     inkscape:window-height="1025"
     inkscape:window-x="67"
     inkscape:window-y="27"
     inkscape:window-maximized="1" />
  <metadata
     id="metadata1503">
    <rdf:RDF>
      <cc:Work
         rdf:about="">
        <dc:format>image/svg+xml</dc:format>
        <dc:type
           rdf:resource="http://purl.org/dc/dcmitype/StillImage" />
        <dc:title></dc:title>
      </cc:Work>
    </rdf:RDF>
  </metadata>
  <g
     inkscape:label="Layer 1"
     inkscape:groupmode="layer"
     id="layer1"
     transform="translate(-71.165588,3.1954015)">
    <path
       style="opacity:1;fill:#d71c5b;fill-opacity:1;stroke:none;stroke-width:0;stroke-miterlimit:4;stroke-dasharray:none;stroke-opacity:1"
       d="M 74.665792,-0.54075599 V 4.3103265 h 0.675023 v -4.85108249 z"
       id="path1003"
       inkscape:connector-curvature="0" />
    <path
       style="opacity:1;fill:#de1d25;fill-opacity:1;stroke:none;stroke-width:0;stroke-miterlimit:4;stroke-dasharray:none;stroke-opacity:1"
       d="M 73.147027,0.55306331 V 4.3103265 h 0.675021 V 0.55306331 Z"
       id="path1001"
       inkscape:connector-curvature="0" />
    <path
       style="opacity:1;fill:#f0572a;fill-opacity:1;stroke:none;stroke-width:0;stroke-miterlimit:4;stroke-dasharray:none;stroke-opacity:1"
       d="m 71.578082,1.9093968 v 2.4009297 h 0.675021 V 1.9093968 Z"
       id="path999"
       inkscape:connector-curvature="0" />
    <path
       style="opacity:1;fill:#912987;fill-opacity:1;stroke:none;stroke-width:0;stroke-miterlimit:4;stroke-dasharray:none;stroke-opacity:1"
       d="m 76.165964,2.8656671 v 1.4446594 h 0.675021 V 2.8656671 Z"
       id="rect845-3"
       inkscape:connector-curvature="0" />
    <rect
       y="-1.7845737"
       x="71.165588"
       height="0.67504185"
       width="6.1128788"
       id="rect845"
       style="font-style:normal;font-variant:normal;font-weight:normal;font-stretch:normal;font-size:40px;line-height:1.25;font-family:'Samyak Tamil';-inkscape-font-specification:'Samyak Tamil';letter-spacing:0.10686106px;word-spacing:0px;opacity:1;fill:#f2f2f2;fill-opacity:1;stroke:#3b3b3d;stroke-width:0;stroke-miterlimit:4;stroke-dasharray:none;stroke-opacity:1" />
    <path
       inkscape:connector-curvature="0"
       id="path924"
       d="m 72.490676,-1.6720639 0.487532,-1.4000877 h 2.462652 l 0.562536,1.575099 -0.850054,-0.1750113 -0.237514,-0.6875436 h -1.412589 l -0.287517,0.8750538 z"
       style="font-style:normal;font-variant:normal;font-weight:normal;font-stretch:normal;font-size:40px;line-height:1.25;font-family:'Samyak Tamil';-inkscape-font-specification:'Samyak Tamil';letter-spacing:0.10686106px;word-spacing:0px;fill:#f2f2f2;fill-opacity:1;stroke:#3b3b3d;stroke-width:0;stroke-linecap:butt;stroke-linejoin:miter;stroke-miterlimit:4;stroke-dasharray:none;stroke-opacity:1" />
    <path
       inkscape:connector-curvature="0"
       d="m 80.392329,-2.0248843 c 0,-0.8001002 -0.602545,-1.0766785 -1.368073,-1.0766785 h -1.284111 v 3.49673411 h 0.84455 v -1.3186833 h 0.419806 c 0.730955,0 1.387828,-0.29139461 1.387828,-1.10137231 z m -0.84455,0.00494 c 0,0.3309057 -0.291395,0.4247444 -0.607484,0.4247444 h -0.3556 v -0.8247914 h 0.370417 c 0.301272,0 0.592667,0.064205 0.592667,0.4000497 z"
       style="font-style:normal;font-variant:normal;font-weight:bold;font-stretch:normal;font-size:50.2611618px;line-height:0;font-family:'Avenir Next LT Pro';-inkscape-font-specification:'Avenir Next LT Pro Bold';letter-spacing:0px;word-spacing:0px;fill:#f0572a;fill-opacity:1;stroke:none;stroke-width:0.26458332"
       id="path1453" />
    <path
       inkscape:connector-curvature="0"
       d="m 84.549021,-1.3680125 c 0,-1.1211275 -0.809978,-1.827389 -1.906411,-1.827389 -1.091494,0 -1.901472,0.7062615 -1.901472,1.827389 0,1.10631101 0.809978,1.85702261 1.901472,1.85702261 1.096433,0 1.906411,-0.7507116 1.906411,-1.85702261 z m -0.903817,0 c 0,0.63217791 -0.414867,1.08655591 -1.002594,1.08655591 -0.587728,0 -0.997656,-0.454378 -0.997656,-1.08655591 0,-0.6124219 0.40499,-1.0668 0.997656,-1.0668 0.592667,0 1.002594,0.4543781 1.002594,1.0668 z"
       style="font-style:normal;font-variant:normal;font-weight:bold;font-stretch:normal;font-size:50.2611618px;line-height:0;font-family:'Avenir Next LT Pro';-inkscape-font-specification:'Avenir Next LT Pro Bold';letter-spacing:0px;word-spacing:0px;fill:#f0572a;fill-opacity:1;stroke:none;stroke-width:0.26458332"
       id="path1455" />
    <path
       inkscape:connector-curvature="0"
       d="M 88.073228,-0.92351199 V -3.1015628 h -0.84455 v 2.10890601 c 0,0.3753557 -0.1778,0.7210779 -0.656873,0.7210779 -0.474133,0 -0.656872,-0.3457222 -0.656872,-0.7210779 V -3.1015628 h -0.839611 v 2.17805081 c 0,0.8396105 0.572911,1.4125221 1.491544,1.4125221 0.913695,0 1.506362,-0.5729116 1.506362,-1.4125221 z"
       style="font-style:normal;font-variant:normal;font-weight:bold;font-stretch:normal;font-size:50.2611618px;line-height:0;font-family:'Avenir Next LT Pro';-inkscape-font-specification:'Avenir Next LT Pro Bold';letter-spacing:0px;word-spacing:0px;fill:#de1d25;fill-opacity:1;stroke:none;stroke-width:0.26458332"
       id="path1457" />
    <path
       inkscape:connector-curvature="0"
       d="m 91.48245,-0.62223979 c 0,-0.45931691 -0.316089,-0.74577271 -0.716139,-0.81491661 v -0.00988 c 0.340783,-0.1135937 0.572911,-0.3704159 0.572911,-0.7556492 0,-0.7062615 -0.646994,-0.8988787 -1.190272,-0.8988787 h -1.392767 v 3.49673561 h 1.392767 c 0.66675,0 1.3335,-0.256822 1.3335,-1.0174111 z M 90.524305,-2.0890904 c 0,0.2469447 -0.182739,0.3802945 -0.498828,0.3802945 H 89.5711 v -0.7210778 h 0.414866 c 0.3556,0 0.538339,0.1037172 0.538339,0.3407833 z m 0.113594,1.38782821 c 0,0.3407833 -0.325966,0.4148669 -0.592666,0.4148669 H 89.5711 V -1.0864955 h 0.469194 c 0.360539,0 0.597605,0.093839 0.597605,0.38523331 z"
       style="font-style:normal;font-variant:normal;font-weight:bold;font-stretch:normal;font-size:50.2611618px;line-height:0;font-family:'Avenir Next LT Pro';-inkscape-font-specification:'Avenir Next LT Pro Bold';letter-spacing:0px;word-spacing:0px;fill:#de1d25;fill-opacity:1;stroke:none;stroke-width:0.26458332"
       id="path1459" />
    <path
       inkscape:connector-curvature="0"
       d="m 94.475724,0.39517131 v -0.7210777 H 92.85083 V -1.0519231 h 1.452033 V -1.728551 H 92.85083 v -0.6568728 h 1.535994 v -0.716139 h -2.35091 v 3.49673411 z"
       style="font-style:normal;font-variant:normal;font-weight:bold;font-stretch:normal;font-size:50.2611618px;line-height:0;font-family:'Avenir Next LT Pro';-inkscape-font-specification:'Avenir Next LT Pro Bold';letter-spacing:0px;word-spacing:0px;fill:#d71c5b;fill-opacity:1;stroke:none;stroke-width:0.26458332"
       id="path1461" />
    <path
       inkscape:connector-curvature="0"
       d="m 97.238649,0.39517131 v -0.7358951 H 95.885393 V -3.1015628 h -0.849489 v 3.49673411 z"
       style="font-style:normal;font-variant:normal;font-weight:bold;font-stretch:normal;font-size:50.2611618px;line-height:0;font-family:'Avenir Next LT Pro';-inkscape-font-specification:'Avenir Next LT Pro Bold';letter-spacing:0px;word-spacing:0px;fill:#d71c5b;fill-opacity:1;stroke:none;stroke-width:0.26458332"
       id="path1463" />
    <path
       inkscape:connector-curvature="0"
       d="m 99.833495,0.39517131 v -0.7358951 H 98.480239 V -3.1015628 h -0.84949 v 3.49673411 z"
       style="font-style:normal;font-variant:normal;font-weight:bold;font-stretch:normal;font-size:50.2611618px;line-height:0;font-family:'Avenir Next LT Pro';-inkscape-font-specification:'Avenir Next LT Pro Bold';letter-spacing:0px;word-spacing:0px;fill:#912987;fill-opacity:1;stroke:none;stroke-width:0.26458332"
       id="path1465" />
    <path
       inkscape:connector-curvature="0"
       d="m 102.66541,0.39517131 v -0.7210777 h -1.6249 V -1.0519231 h 1.45203 V -1.728551 h -1.45203 v -0.6568728 h 1.536 v -0.716139 h -2.35092 v 3.49673411 z"
       style="font-style:normal;font-variant:normal;font-weight:bold;font-stretch:normal;font-size:50.2611618px;line-height:0;font-family:'Avenir Next LT Pro';-inkscape-font-specification:'Avenir Next LT Pro Bold';letter-spacing:0px;word-spacing:0px;fill:#912987;fill-opacity:1;stroke:none;stroke-width:0.26458332"
       id="path1467" />
    <g
       transform="matrix(0.09826452,0,0,0.09826452,28.799405,-45.356565)"
       aria-label="TABLEAU"
       style="font-style:normal;font-variant:normal;font-weight:normal;font-stretch:normal;font-size:107.70249939px;line-height:1.25;font-family:'Samyak Tamil';-inkscape-font-specification:'Samyak Tamil';letter-spacing:0px;word-spacing:0px;fill:#f2f2f2;fill-opacity:1;stroke:none;stroke-width:2.6925621"
       id="text1406-8">
      <path
         inkscape:connector-curvature="0"
         d="m 526.61767,478.46166 v -7.33813 h -28.69913 v 7.33813 h 10.05223 v 28.24678 h 8.59466 v -28.24678 z"
         style="font-style:normal;font-variant:normal;font-weight:bold;font-stretch:normal;font-size:50.2611618px;line-height:0;font-family:'Avenir Next LT Pro';-inkscape-font-specification:'Avenir Next LT Pro Bold';letter-spacing:5.30434752px;fill:#f2f2f2;fill-opacity:1;stroke-width:2.6925621"
         id="path1438" />
      <path
         inkscape:connector-curvature="0"
         d="m 566.42787,506.70844 -14.77678,-35.58491 h -8.34335 l -14.92757,35.58491 h 9.34858 l 2.61358,-6.98631 h 13.77156 l 2.76436,6.98631 z m -14.67626,-13.87209 h -8.94648 l 4.5235,-12.21346 z"
         style="font-style:normal;font-variant:normal;font-weight:bold;font-stretch:normal;font-size:50.2611618px;line-height:0;font-family:'Avenir Next LT Pro';-inkscape-font-specification:'Avenir Next LT Pro Bold';letter-spacing:5.30434752px;fill:#f2f2f2;fill-opacity:1;stroke-width:2.6925621"
         id="path1440" />
      <path
         inkscape:connector-curvature="0"
         d="m 602.41745,496.35464 c 0,-4.67429 -3.21672,-7.58944 -7.28787,-8.2931 v -0.10052 c 3.46802,-1.15601 5.83029,-3.76959 5.83029,-7.68996 0,-7.18734 -6.58421,-9.14753 -12.11294,-9.14753 h -14.17365 v 35.58491 h 14.17365 c 6.78526,0 13.57052,-2.61359 13.57052,-10.3538 z m -9.75067,-14.92757 c 0,2.51306 -1.85966,3.87011 -5.07638,3.87011 h -4.62402 v -7.33813 h 4.22193 c 3.61881,0 5.47847,1.05548 5.47847,3.46802 z m 1.15601,14.12339 c 0,3.46802 -3.31724,4.22193 -6.03134,4.22193 h -4.82507 v -8.1423 h 4.77481 c 3.66906,0 6.0816,0.95496 6.0816,3.92037 z"
         style="font-style:normal;font-variant:normal;font-weight:bold;font-stretch:normal;font-size:50.2611618px;line-height:0;font-family:'Avenir Next LT Pro';-inkscape-font-specification:'Avenir Next LT Pro Bold';letter-spacing:5.30434752px;fill:#f2f2f2;fill-opacity:1;stroke-width:2.6925621"
         id="path1442" />
      <path
         inkscape:connector-curvature="0"
         d="m 635.77066,506.70844 v -7.48892 H 621.9991 v -28.09599 h -8.64492 v 35.58491 z"
         style="font-style:normal;font-variant:normal;font-weight:bold;font-stretch:normal;font-size:50.2611618px;line-height:0;font-family:'Avenir Next LT Pro';-inkscape-font-specification:'Avenir Next LT Pro Bold';letter-spacing:5.30434752px;fill:#f2f2f2;fill-opacity:1;stroke-width:2.6925621"
         id="path1444" />
      <path
         inkscape:connector-curvature="0"
         d="m 669.89429,506.70844 v -7.33813 h -16.53592 v -7.3884 h 14.77678 v -6.88577 h -14.77678 v -6.68474 h 15.63122 v -7.28787 h -23.92432 v 35.58491 z"
         style="font-style:normal;font-variant:normal;font-weight:bold;font-stretch:normal;font-size:50.2611618px;line-height:0;font-family:'Avenir Next LT Pro';-inkscape-font-specification:'Avenir Next LT Pro Bold';letter-spacing:5.30434752px;fill:#f2f2f2;fill-opacity:1;stroke-width:2.6925621"
         id="path1446" />
      <path
         inkscape:connector-curvature="0"
         d="m 714.57433,506.70844 -14.77678,-35.58491 h -8.34336 l -14.92756,35.58491 h 9.34858 l 2.61358,-6.98631 h 13.77155 l 2.76437,6.98631 z m -14.67626,-13.87209 h -8.94649 l 4.52351,-12.21346 z"
         style="font-style:normal;font-variant:normal;font-weight:bold;font-stretch:normal;font-size:50.2611618px;line-height:0;font-family:'Avenir Next LT Pro';-inkscape-font-specification:'Avenir Next LT Pro Bold';letter-spacing:5.30434752px;fill:#f2f2f2;fill-opacity:1;stroke-width:2.6925621"
         id="path1448" />
      <path
         inkscape:connector-curvature="0"
         d="m 752.09294,493.2887 v -22.16517 h -8.59466 v 21.46152 c 0,3.81985 -1.8094,7.33813 -6.68473,7.33813 -4.82507,0 -6.68473,-3.51828 -6.68473,-7.33813 v -21.46152 h -8.5444 v 22.16517 c 0,8.5444 5.83029,14.3747 15.17887,14.3747 9.29831,0 15.32965,-5.8303 15.32965,-14.3747 z"
         style="font-style:normal;font-variant:normal;font-weight:bold;font-stretch:normal;font-size:50.2611618px;line-height:0;font-family:'Avenir Next LT Pro';-inkscape-font-specification:'Avenir Next LT Pro Bold';letter-spacing:5.30434752px;fill:#f2f2f2;fill-opacity:1;stroke-width:2.6925621"
         id="path1450" />
    </g>
  </g>
</svg>
