<?xml version="1.0" encoding="UTF-8" standalone="no"?>
<!-- Created with Inkscape (http://www.inkscape.org/) -->

<svg
   xmlns:dc="http://purl.org/dc/elements/1.1/"
   xmlns:cc="http://creativecommons.org/ns#"
   xmlns:rdf="http://www.w3.org/1999/02/22-rdf-syntax-ns#"
   xmlns:svg="http://www.w3.org/2000/svg"
   xmlns="http://www.w3.org/2000/svg"
   xmlns:sodipodi="http://sodipodi.sourceforge.net/DTD/sodipodi-0.dtd"
   xmlns:inkscape="http://www.inkscape.org/namespaces/inkscape"
   viewBox="0 0 217.05184 28.395999"
   version="1.1"
   id="svg8"
   inkscape:version="0.92.3 (2405546, 2018-03-11)"
   sodipodi:docname="trashboard-oneline-logo.svg">
  <defs
     id="defs2" />
  <sodipodi:namedview
     id="base"
     pagecolor="#ffffff"
     bordercolor="#666666"
     borderopacity="1.0"
     inkscape:pageopacity="0.0"
     inkscape:pageshadow="2"
     inkscape:zoom="3.959798"
     inkscape:cx="119.52541"
     inkscape:cy="3.3806007"
     inkscape:document-units="mm"
     inkscape:current-layer="g4675"
     showgrid="false"
     showguides="true"
     inkscape:lockguides="true"
     inkscape:window-width="1853"
     inkscape:window-height="1025"
     inkscape:window-x="67"
     inkscape:window-y="27"
     inkscape:window-maximized="1" />
  <metadata
     id="metadata5">
    <rdf:RDF>
      <cc:Work
         rdf:about="">
        <dc:format>image/svg+xml</dc:format>
        <dc:type
           rdf:resource="http://purl.org/dc/dcmitype/StillImage" />
        <dc:title></dc:title>
      </cc:Work>
    </rdf:RDF>
  </metadata>
  <g
     inkscape:label="Layer 1"
     inkscape:groupmode="layer"
     id="layer1"
     transform="translate(-83.54297,-109.33752)">
    <path
       style="opacity:1;fill:#d71c5b;fill-opacity:1;stroke:none;stroke-width:0;stroke-miterlimit:4;stroke-dasharray:none;stroke-opacity:1"
       d="m 290.71989,118.905 v 18.3348 h 2.55127 V 118.905 Z"
       id="path1003"
       inkscape:connector-curvature="0" />
    <path
       style="opacity:1;fill:#de1d25;fill-opacity:1;stroke:none;stroke-width:0;stroke-miterlimit:4;stroke-dasharray:none;stroke-opacity:1"
       d="m 284.97968,123.03912 v 14.20068 h 2.55126 v -14.20068 z"
       id="path1001"
       inkscape:connector-curvature="0" />
    <path
       style="opacity:1;fill:#f0572a;fill-opacity:1;stroke:none;stroke-width:0;stroke-miterlimit:4;stroke-dasharray:none;stroke-opacity:1"
       d="m 279.0498,128.16542 v 9.07438 h 2.55127 v -9.07438 z"
       id="path999"
       inkscape:connector-curvature="0" />
    <path
       style="opacity:1;fill:#912987;fill-opacity:1;stroke:none;stroke-width:0;stroke-miterlimit:4;stroke-dasharray:none;stroke-opacity:1"
       d="m 296.38983,131.77967 v 5.46013 h 2.55126 v -5.46013 z"
       id="rect845-3"
       inkscape:connector-curvature="0" />
    <g
       aria-label="TRASHBOARD"
       transform="matrix(0.37139347,0,0,0.37139347,-100.63338,-50.47759)"
       style="font-style:normal;font-variant:normal;font-weight:normal;font-stretch:normal;font-size:40px;line-height:1.25;font-family:'Samyak Tamil';-inkscape-font-specification:'Samyak Tamil';letter-spacing:0.10686106px;word-spacing:0px;fill:#f2f2f2;fill-opacity:1;stroke:none"
       id="flowRoot972">
      <g
         id="g4675"
         style="fill:#f2f2f2">
        <rect
           y="443.41531"
           x="1018.1235"
           height="6.8696399"
           width="62.208405"
           id="rect845"
           style="opacity:1;fill:#f2f2f2;fill-opacity:1;stroke:#3b3b3d;stroke-width:0;stroke-miterlimit:4;stroke-dasharray:none;stroke-opacity:1" />
        <path
           inkscape:connector-curvature="0"
           id="path924"
           d="m 1031.6071,444.56027 4.9614,-14.24815 h 25.0614 l 5.7247,16.02918 -8.6506,-1.78103 -2.4171,-6.99686 h -14.3753 l -2.926,8.90508 z"
           style="fill:#f2f2f2;fill-opacity:1;stroke:#3b3b3d;stroke-width:0;stroke-linecap:butt;stroke-linejoin:miter;stroke-miterlimit:4;stroke-dasharray:none;stroke-opacity:1" />
        <path
           inkscape:connector-curvature="0"
           id="path4599"
           style="font-style:normal;font-variant:normal;font-weight:bold;font-stretch:normal;font-family:'Avenir Next LT Pro';-inkscape-font-specification:'Avenir Next LT Pro Bold';letter-spacing:0.10686106px;fill:#f0572a;fill-opacity:1;stroke-width:1.79387951"
           d="M 536.87848,465.08035 V 454.6041 h -40.97221 v 10.47625 h 14.35104 v 40.32641 h 12.27013 v -40.32641 z" />
        <path
           inkscape:connector-curvature="0"
           id="path4601"
           style="font-style:normal;font-variant:normal;font-weight:bold;font-stretch:normal;font-family:'Avenir Next LT Pro';-inkscape-font-specification:'Avenir Next LT Pro Bold';letter-spacing:0.10686106px;fill:#de1d25;fill-opacity:1;stroke-width:1.79387951"
           d="m 588.40207,505.40676 -13.27472,-21.74182 c 6.52973,-2.00913 10.54803,-6.88848 10.54803,-13.70524 0,-11.62433 -9.68696,-15.3556 -19.44566,-15.3556 h -19.3739 v 50.80266 h 12.05487 v -20.1632 h 4.1618 l 10.97854,20.1632 z m -14.85332,-35.23179 c 0,5.16638 -4.95111,6.17095 -8.89765,6.17095 h -5.81216 v -11.83961 h 6.52971 c 3.65953,0 8.1801,0.93283 8.1801,5.66866 z" />
        <path
           inkscape:connector-curvature="0"
           id="path4603"
           style="font-style:normal;font-variant:normal;font-weight:bold;font-stretch:normal;font-family:'Avenir Next LT Pro';-inkscape-font-specification:'Avenir Next LT Pro Bold';letter-spacing:0.10686106px;fill:#de1d3a;fill-opacity:1;stroke-width:1.79387951"
           d="M 653.27052,505.40676 632.1745,454.6041 h -11.91135 l -21.31129,50.80266 h 13.34645 l 3.73127,-9.97397 h 19.66093 l 3.94653,9.97397 z m -20.95251,-19.80441 h -12.77243 l 6.45797,-17.43651 z" />
        <path
           inkscape:connector-curvature="0"
           id="path4605"
           style="font-style:normal;font-variant:normal;font-weight:bold;font-stretch:normal;font-family:'Avenir Next LT Pro';-inkscape-font-specification:'Avenir Next LT Pro Bold';letter-spacing:0.10686106px;fill:#d71c5b;fill-opacity:1;stroke-width:1.79387951"
           d="m 694.44621,459.55521 c -4.44882,-4.09005 -10.90679,-6.24271 -16.64721,-6.24271 -9.47167,0 -19.66091,4.6641 -19.66091,15.92966 0,9.18466 6.52971,12.48539 12.98768,14.5663 6.67323,2.15266 10.54801,3.37249 10.54801,7.24728 0,4.09004 -3.30074,5.52513 -7.03201,5.52513 -4.01828,0 -8.53886,-2.29616 -10.97854,-5.38163 l -8.03657,8.18009 c 4.44882,4.66408 11.76784,7.31903 19.01511,7.31903 10.04573,0 19.44566,-5.23813 19.44566,-16.93423 0,-10.11747 -8.89763,-13.05943 -15.78613,-15.28385 -4.80761,-1.50685 -7.82132,-2.58317 -7.82132,-5.95567 0,-4.0183 3.94653,-5.09462 7.10376,-5.09462 3.15723,0 6.96026,1.72212 9.04115,4.37706 z" />
        <path
           inkscape:connector-curvature="0"
           id="path4607"
           style="letter-spacing:0.14248142px;fill:#912987;fill-opacity:1;stroke-width:1.79387951"
           d="M 748.9168,505.40676 V 454.6041 h -12.27013 v 19.23039 H 716.84223 V 454.6041 H 704.5721 v 50.80266 h 12.27013 v -21.23952 h 19.80444 v 21.23952 z" />
        <path
           inkscape:connector-curvature="0"
           id="path4609"
           style="letter-spacing:0.14248142px;fill:#f2f2f2;fill-opacity:1;stroke-width:1.79387951"
           d="m 796.56644,490.62519 c 0,-6.67324 -4.59234,-10.83504 -10.40451,-11.83961 v -0.1435 c 4.9511,-1.65036 8.3236,-5.38163 8.3236,-10.97854 0,-10.26098 -9.39993,-13.05944 -17.29299,-13.05944 h -20.23497 v 50.80266 h 20.23497 c 9.68694,0 19.3739,-3.73125 19.3739,-14.78156 z M 782.64593,469.3139 c 0,3.58777 -2.65495,5.52515 -7.24727,5.52515 h -6.60149 v -10.47626 h 6.02745 c 5.16636,0 7.82131,1.50685 7.82131,4.95111 z m 1.65036,20.16321 c 0,4.95111 -4.73584,6.02743 -8.61062,6.02743 h -6.8885 v -11.62435 h 6.81675 c 5.23813,0 8.68237,1.36335 8.68237,5.59692 z" />
        <path
           inkscape:connector-curvature="0"
           id="path4611"
           style="letter-spacing:0.14248142px;fill:#f2f2f2;fill-opacity:1;stroke-width:1.79387951"
           d="m 857.81841,479.79015 c 0,-16.28841 -11.76785,-26.54941 -27.69751,-26.54941 -15.85789,0 -27.62573,10.261 -27.62573,26.54941 0,16.07316 11.76784,26.97996 27.62573,26.97996 15.92966,0 27.69751,-10.9068 27.69751,-26.97996 z m -13.1312,0 c 0,9.18466 -6.02743,15.78615 -14.56631,15.78615 -8.53886,0 -14.49453,-6.60149 -14.49453,-15.78615 0,-8.89763 5.88391,-15.49911 14.49453,-15.49911 8.61062,0 14.56631,6.60148 14.56631,15.49911 z" />
        <path
           inkscape:connector-curvature="0"
           id="path4613"
           style="letter-spacing:0.14248142px;fill:#f2f2f2;fill-opacity:1;stroke-width:1.79387951"
           d="m 913.03735,505.40675 -21.09602,-50.80266 h -11.91136 l -21.31128,50.80266 h 13.34646 l 3.73127,-9.97397 h 19.66091 l 3.94654,9.97397 z m -20.95251,-19.80442 h -12.77241 l 6.45796,-17.43651 z" />
        <path
           inkscape:connector-curvature="0"
           id="path4615"
           style="letter-spacing:0.14248142px;fill:#f2f2f2;fill-opacity:1;stroke-width:1.79387951"
           d="m 959.038,505.40675 -13.2747,-21.74181 c 6.52971,-2.00915 10.54801,-6.8885 10.54801,-13.70524 0,-11.62434 -9.68696,-15.35561 -19.44566,-15.35561 h -19.3739 v 50.80266 h 12.05488 v -20.16321 h 4.16179 l 10.97854,20.16321 z m -14.85332,-35.2318 c 0,5.16638 -4.95111,6.17096 -8.89765,6.17096 h -5.81216 V 464.5063 h 6.52973 c 3.65951,0 8.18008,0.93282 8.18008,5.66865 z" />
        <path
           inkscape:connector-curvature="0"
           id="path4617"
           style="letter-spacing:0.14248142px;fill:#f2f2f2;fill-opacity:1;stroke-width:1.79387951"
           d="m 1012.6873,479.86191 c 0,-19.23039 -14.63809,-25.25782 -29.06088,-25.25782 H 965.2571 v 50.80266 h 18.94336 c 13.99225,0 28.48684,-7.6778 28.48684,-25.54484 z m -12.77237,0 c 0,11.33732 -8.10844,14.92508 -16.86255,14.92508 h -5.81217 v -29.70664 h 6.0992 c 8.46708,0 16.57552,3.37248 16.57552,14.78156 z" />
      </g>
    </g>
  </g>
</svg>
