<?xml version="1.0" encoding="UTF-8" standalone="no"?>
<!-- Created with Inkscape (http://www.inkscape.org/) by Toomai Glittershine for SmashWiki -->

<svg
   xmlns:dc="http://purl.org/dc/elements/1.1/"
   xmlns:cc="http://creativecommons.org/ns#"
   xmlns:rdf="http://www.w3.org/1999/02/22-rdf-syntax-ns#"
   xmlns:svg="http://www.w3.org/2000/svg"
   xmlns="http://www.w3.org/2000/svg"
   xmlns:sodipodi="http://sodipodi.sourceforge.net/DTD/sodipodi-0.dtd"
   xmlns:inkscape="http://www.inkscape.org/namespaces/inkscape"
   id="svg2"
   version="1.1"
   viewBox="0 0 256 256"
   sodipodi:docname="basic.svg"
   inkscape:version="0.92.3 (2405546, 2018-03-11)">
  <metadata
     id="metadata7241">
    <rdf:RDF>
      <cc:Work
         rdf:about="">
        <dc:format>image/svg+xml</dc:format>
        <dc:type
           rdf:resource="http://purl.org/dc/dcmitype/StillImage" />
        <dc:title></dc:title>
      </cc:Work>
    </rdf:RDF>
  </metadata>
  <defs
     id="defs7239" />
  <sodipodi:namedview
     pagecolor="#ffffff"
     bordercolor="#666666"
     borderopacity="1"
     objecttolerance="10"
     gridtolerance="10"
     guidetolerance="10"
     inkscape:pageopacity="0"
     inkscape:pageshadow="2"
     inkscape:window-width="1853"
     inkscape:window-height="1025"
     id="namedview7237"
     showgrid="false"
     inkscape:zoom="0.921875"
     inkscape:cx="128"
     inkscape:cy="128"
     inkscape:window-x="67"
     inkscape:window-y="27"
     inkscape:window-maximized="1"
     inkscape:current-layer="svg2" />
  <path
     inkscape:connector-curvature="0"
     style="stroke-width:0.24574997"
     d="m 128.44968,2.0110122 c -1.72288,0.030686 -3.44357,0.4638335 -5.09933,1.2993085 -0.41529,0.2260943 -0.83054,0.4767939 -1.27288,0.7766089 -0.91176,0.5922562 -1.79873,1.3120751 -2.64904,2.1599106 -1.84312,1.8406678 -3.68624,3.6838513 -5.52936,5.5269778 -5.60555,5.595727 -11.21134,11.188897 -16.804582,16.796911 -2.597605,2.587748 -5.195211,5.178055 -7.780504,7.778093 l -0.727165,0.717547 c -0.727426,0.737271 -1.457436,1.472146 -2.226631,2.248713 -0.157192,0.157193 -0.766913,0.766501 -1.732711,1.729866 l -0.685433,0.703176 c -1.292646,1.324569 -2.411034,2.94893 -3.185132,4.629879 -1.260721,2.737656 -1.019879,5.072339 0.614361,6.694304 0.717584,0.722486 1.710441,1.307242 2.968692,1.725038 2.066745,0.688091 4.327958,0.850411 6.520045,1.101059 7.271764,0.838022 13.6047,3.460031 18.53446,8.382401 1.10094,1.100945 2.13028,2.320085 3.08628,3.65697 2.44764,3.428219 4.07694,7.008465 4.89531,10.682427 0.41533,2.172438 0.5727,4.43833 0.44493,6.775408 -0.12052,2.209303 -0.41275,4.312763 -0.86494,6.313187 -0.41532,1.499055 -0.9559,3.003012 -1.61946,4.507008 -1.97088,4.465275 -4.45292,8.328725 -7.456,11.498895 -3.17016,3.0006 -7.03115,5.48272 -11.498895,7.45362 -1.506428,0.66353 -3.010311,1.20413 -4.509403,1.61945 -1.997954,0.45219 -4.103884,0.74207 -6.313188,0.86493 -2.337077,0.12762 -4.602969,-0.03 -6.775406,-0.44496 -3.673963,-0.81834 -7.254695,-2.44764 -10.682914,-4.89531 -1.336885,-0.95595 -2.553068,-1.98531 -3.656485,-3.08625 -4.92237,-4.92974 -7.544865,-11.260337 -8.382849,-18.532061 -0.253006,-2.192087 -0.414989,-4.4533 -1.10061,-6.520044 -0.417795,-1.258251 -1.003038,-2.25111 -1.725524,-2.968693 -1.624435,-1.63424 -3.956648,-1.875081 -6.694304,-0.614361 -1.680912,0.776568 -3.30531,1.892485 -4.629881,3.185132 l -0.702687,0.685434 c -0.963366,0.965799 -1.572598,1.575405 -1.769202,1.774478 -0.7348,0.729861 -1.472182,1.457399 -2.206945,2.187259 l -0.717583,0.727165 c -2.60251,2.585291 -5.190348,5.182899 -7.778109,7.780504 -5.607999,5.593247 -11.203565,11.199027 -16.799318,16.804587 -1.843119,1.84312 -3.6862756,3.68624 -5.5269629,5.52936 -0.847829,0.85029 -1.5681447,1.73749 -2.1800718,2.68119 -0.2799526,0.41285 -0.530824,0.82544 -0.7569195,1.24076 -2.4304584,4.81668 -1.4570618,10.17904 3.062259,14.70083 1.1820506,1.18452 2.4672859,2.47013 3.7500892,3.75298 l 2.464703,2.46469 c 6.613124,6.61066 13.228728,13.22117 19.844322,19.8515 2.093805,2.09871 4.187758,4.1976 6.279092,6.29878 1.496623,1.50399 2.912291,3.11336 4.19266,4.80414 1.064081,1.40568 1.855396,2.84858 2.538585,4.65485 1.65883,4.84374 0.417833,9.63088 -3.155378,12.86249 -1.231191,1.02726 -2.710784,1.88504 -4.416285,2.51415 -2.275661,0.84292 -4.784603,1.13254 -7.215097,1.44954 -9.220545,1.20417 -16.816759,6.33807 -20.311335,13.75479 -0.8969703,1.83574 -1.5455769,3.80678 -1.9117598,5.87354 -0.3465727,1.95372 -0.4229224,3.91962 -0.2556255,5.86103 0.3316015,6.53696 3.2169443,12.1597 8.0041293,16.83389 0.100684,0.1033 0.203976,0.20623 0.616794,0.61676 4.676625,4.78723 10.296862,7.67242 16.836295,8.00417 1.941402,0.16467 3.907318,0.0906 5.861033,-0.256 2.066745,-0.36604 4.035319,-1.01479 5.873498,-1.91177 7.416752,-3.49457 12.553054,-11.08836 13.757224,-20.31133 0.319625,-2.43049 0.6071,-4.93943 1.450025,-7.21505 0.587339,-1.59004 1.370943,-2.98329 2.307249,-4.16291 3.258638,-3.75261 8.235053,-5.05744 13.435129,-3.25856 1.442542,0.53325 2.885343,1.32667 4.291019,2.39078 1.693225,1.28034 3.303025,2.696 4.80702,4.19263 2.101177,2.09133 4.199771,4.18262 6.310792,6.28871 7.443741,7.42408 14.87266,14.86307 22.30658,22.297 1.28527,1.2828 2.56801,2.56561 3.89504,3.89265 4.37682,4.37432 9.7416,5.35015 14.55831,2.9197 0.41533,-0.22607 0.83055,-0.47678 1.27289,-0.77661 0.91176,-0.59224 1.79922,-1.31256 2.64952,-2.16038 1.84312,-1.84065 3.68624,-3.68385 5.52936,-5.52697 5.60555,-5.59818 11.21086,-11.19131 16.80414,-16.79931 2.59756,-2.58776 5.19517,-5.17806 7.78046,-7.7781 l 0.72764,-0.71755 c 0.72744,-0.73727 1.45697,-1.47215 2.22616,-2.24871 0.1572,-0.1572 0.76695,-0.76654 1.73275,-1.72987 l 0.68538,-0.70318 c 1.29266,-1.32456 2.41105,-2.94896 3.18514,-4.62988 1.26073,-2.73765 1.01988,-5.07185 -0.61436,-6.6938 -0.71759,-0.72249 -1.71045,-1.30774 -2.96869,-1.72554 -2.06674,-0.68809 -4.32747,-0.84993 -6.51956,-1.10061 -7.27172,-0.83798 -13.6047,-3.46048 -18.53445,-8.38285 -1.10095,-1.10095 -2.13078,-2.3196 -3.08674,-3.65647 -2.44768,-3.42823 -4.07697,-7.00896 -4.89534,-10.68293 -0.41529,-2.17243 -0.5727,-4.43833 -0.44493,-6.7754 0.12051,-2.20931 0.41275,-4.3128 0.86492,-6.31319 0.41533,-1.49909 0.95592,-3.00301 1.61947,-4.50701 1.97089,-4.46527 4.45341,-8.32873 7.45649,-11.49889 3.17016,-3.00061 7.03067,-5.48272 11.4984,-7.45362 1.50644,-0.66354 3.01035,-1.20414 4.50942,-1.61945 1.99794,-0.4522 4.10437,-0.74206 6.31366,-0.86494 2.33709,-0.12762 4.60249,0.03 6.77493,0.44498 3.67396,0.81832 7.25472,2.44762 10.68291,4.8953 1.33689,0.95349 2.55602,1.98572 3.65697,3.08913 4.92238,4.92975 7.54438,11.26033 8.38241,18.53207 0.253,2.19209 0.41543,4.45281 1.10105,6.51955 0.4178,1.25825 1.00255,2.25111 1.72504,2.96868 1.62443,1.63425 3.95664,1.87509 6.69431,0.61437 1.68095,-0.77657 3.3053,-1.89248 4.62988,-3.18513 l 0.70268,-0.68544 c 0.96337,-0.96575 1.57313,-1.5754 1.76968,-1.77447 0.73481,-0.72986 1.47171,-1.4574 2.2065,-2.18726 l 0.71756,-0.72717 c 2.60249,-2.58529 5.19034,-5.18289 7.7781,-7.78049 5.608,-5.59326 11.2036,-11.19904 16.79931,-16.8046 1.84312,-1.84312 3.68631,-3.68624 5.52696,-5.52936 0.84784,-0.85029 1.56815,-1.73701 2.18008,-2.68069 0.27994,-0.41285 0.53082,-0.82593 0.75692,-1.24121 2.43048,-4.81672 1.45706,-10.17908 -3.0623,-14.70088 -1.18205,-1.18451 -2.46726,-2.46967 -3.75005,-3.75248 -7.43147,-7.43393 -14.87263,-14.863073 -22.30902,-22.31669 -2.09377,-2.098708 -4.18775,-4.197152 -6.27909,-6.298292 -1.49662,-1.503995 -2.9123,-3.113834 -4.19263,-4.804626 -1.06411,-1.405675 -1.85543,-2.848103 -2.53862,-4.654356 -1.65882,-4.843737 -0.41735,-9.630885 3.15586,-12.8625 1.23124,-1.027254 2.71034,-1.885038 4.41584,-2.514144 2.27563,-0.842926 4.78505,-1.133021 7.21555,-1.450026 9.22053,-1.20417 16.81627,-6.338076 20.31083,-13.754791 0.89697,-1.835747 1.54608,-3.806304 1.91225,-5.873048 0.34658,-1.953716 0.42245,-3.920081 0.25525,-5.861522 -0.33159,-6.536949 -3.21694,-12.159706 -8.00411,-16.833869 -0.10071,-0.103219 -0.20398,-0.206371 -0.61681,-0.616778 -4.67662,-4.787208 -10.29684,-7.6723901 -16.83625,-8.0041524 -1.94144,-0.1646402 -3.90736,-0.090689 -5.86107,0.2558124 -2.06674,0.3686166 -4.03528,1.0147702 -5.87349,1.91176 -7.41676,3.494564 -12.55302,11.088335 -13.7572,20.311327 -0.31962,2.430481 -0.60665,4.939422 -1.44957,7.215083 -0.58733,1.590002 -1.37143,2.983738 -2.30774,4.163318 -3.25863,3.752633 -8.23505,5.05748 -13.43512,3.258599 -1.44254,-0.533256 -2.88535,-1.327153 -4.29102,-2.391271 -1.69323,-1.280333 -3.30254,-2.696001 -4.80654,-4.192623 -2.10113,-2.091334 -4.20025,-4.18263 -6.31124,-6.28871 -7.44377,-7.424089 -14.87269,-14.863059 -22.30662,-22.296994 -1.28527,-1.282814 -2.568,-2.5655913 -3.89505,-3.8926393 -2.87228,-2.8706683 -6.16987,-4.2773804 -9.45898,-4.2185527 z"
     id="path6564" />
</svg>
