<?xml version="1.0" standalone="no"?>
<!DOCTYPE svg PUBLIC "-//W3C//DTD SVG 20010904//EN"
 "http://www.w3.org/TR/2001/REC-SVG-20010904/DTD/svg10.dtd">
<svg version="1.0" xmlns="http://www.w3.org/2000/svg"
 viewBox="0 0 1200.000000 1200.000000"
 preserveAspectRatio="xMidYMid meet">
<metadata>
Created by potrace 1.15, written by Peter Selinger 2001-2017
</metadata>
<g transform="translate(0.000000,1200.000000) scale(0.100000,-0.100000)"
stroke="none">
<path d="M5790 11584 c-25 -2 -106 -8 -180 -14 -74 -7 -211 -24 -305 -40
-1764 -295 -3141 -1710 -3454 -3550 -40 -236 -53 -384 -58 -675 -4 -225 -1
-329 12 -465 143 -1509 1062 -3198 2730 -5020 221 -241 779 -799 1020 -1020
221 -202 432 -385 445 -385 13 0 224 183 445 385 241 221 799 779 1020 1020
1668 1822 2587 3511 2730 5020 21 219 16 682 -10 890 -129 1044 -563 1952
-1270 2656 -672 668 -1530 1078 -2471 1179 -133 15 -560 27 -654 19z m457
-1005 c671 -55 1297 -311 1803 -737 127 -107 348 -333 449 -461 279 -351 483
-761 591 -1186 79 -309 106 -557 97 -890 -9 -338 -52 -588 -157 -905 -158
-480 -413 -894 -775 -1255 -168 -169 -299 -276 -500 -410 -384 -256 -815 -422
-1295 -497 -128 -20 -182 -22 -460 -22 -278 0 -332 2 -460 22 -480 75 -911
241 -1295 497 -201 134 -332 241 -500 410 -494 493 -799 1101 -905 1800 -27
179 -38 538 -21 721 58 636 291 1224 681 1714 103 129 322 355 450 462 635
535 1476 805 2297 737z m-1507 -7294 c0 -8 -9 -15 -19 -15 -50 0 -51 -4 -51
-146 0 -119 -2 -136 -19 -153 -19 -19 -19 -20 0 -36 16 -15 19 -35 21 -153 l3
-136 33 -8 c19 -5 32 -15 32 -24 0 -14 -10 -16 -60 -12 -33 2 -66 10 -73 17
-8 8 -14 62 -17 159 l-5 147 -30 14 c-26 13 -27 16 -10 19 42 9 45 19 45 168
0 136 1 144 22 158 30 22 128 22 128 1z m2648 -1 c21 -14 22 -22 22 -158 0
-149 3 -159 45 -168 17 -3 16 -6 -10 -19 l-30 -14 -5 -147 c-3 -97 -9 -151
-17 -159 -7 -7 -40 -15 -73 -17 -50 -4 -60 -2 -60 12 0 9 13 19 33 24 l32 8 3
136 c2 118 5 138 21 153 19 16 19 17 0 36 -17 17 -19 34 -19 153 0 142 -1 146
-51 146 -10 0 -19 7 -19 15 0 21 98 21 128 -1z m-2228 -174 l0 -49 -122 -3
-123 -3 0 -25 0 -25 123 -3 122 -3 0 -49 0 -49 -122 -3 c-111 -3 -123 -5 -126
-22 -6 -30 16 -36 136 -36 l112 0 0 -45 0 -45 -144 0 c-137 0 -144 1 -169 24
-32 30 -41 61 -33 123 6 56 6 51 0 128 -5 52 -2 64 17 89 32 40 50 45 197 45
l132 1 0 -50z m319 35 c68 -34 80 -150 23 -208 -28 -28 -38 -31 -111 -35 -44
-2 -85 -10 -90 -16 -6 -7 -11 -41 -13 -76 l-3 -65 -47 -3 -48 -3 0 91 c0 144
24 170 154 170 77 0 102 12 90 44 -5 13 -24 16 -125 16 l-119 0 0 50 0 50 130
0 c95 0 139 -4 159 -15z m181 -196 l0 -210 -47 3 -48 3 -3 208 -2 207 50 0 50
0 0 -211z m300 161 l0 -50 -45 0 -44 0 -3 -157 -3 -158 -47 -3 -48 -3 0 160 0
161 -45 0 -45 0 0 50 0 50 140 0 140 0 0 -50z m360 0 l0 -49 -117 -3 -118 -3
0 -25 0 -25 118 -3 117 -3 0 -49 0 -50 -120 0 c-120 0 -120 0 -120 -24 0 -32
14 -36 136 -36 l104 0 0 -45 0 -45 -136 0 -136 0 -35 35 c-34 34 -35 36 -29
97 6 81 6 75 0 131 -8 60 9 103 50 128 26 16 51 19 159 19 l127 0 0 -50z m378
-2 l3 -48 -103 0 c-57 0 -108 -4 -114 -8 -50 -33 -42 -185 11 -206 9 -3 59 -6
111 -6 l94 0 0 -45 0 -45 -129 0 c-146 0 -163 7 -203 83 -30 58 -30 174 -1
232 42 82 73 95 218 92 l110 -2 3 -47z m122 -28 l0 -80 75 0 75 0 0 81 0 80
48 -3 47 -3 3 -202 2 -203 -50 0 -50 0 0 75 0 75 -75 0 -75 0 0 -75 0 -75 -50
0 -50 0 0 205 0 205 50 0 50 0 0 -80z"/>
<path d="M5670 10054 c-785 -100 -1477 -535 -1912 -1199 -226 -344 -364 -728
-419 -1160 -19 -146 -16 -483 5 -635 150 -1104 936 -1988 2011 -2260 226 -57
372 -74 645 -74 273 0 419 17 645 74 896 227 1606 886 1896 1760 95 287 132
521 133 830 0 356 -57 665 -181 980 -362 919 -1193 1563 -2174 1685 -152 19
-501 18 -649 -1z m1740 -1214 l0 -390 -1006 0 c-735 0 -1017 -3 -1045 -12
-124 -37 -208 -210 -181 -367 20 -114 75 -195 157 -232 38 -18 94 -19 1058
-19 l1017 0 0 -400 0 -400 -1036 0 -1035 0 -34 -23 c-45 -30 -70 -63 -102
-134 -22 -48 -27 -72 -27 -143 -1 -147 53 -247 158 -296 l51 -24 1013 0 1012
0 0 -400 0 -401 -1132 3 -1133 3 -85 24 c-224 60 -413 195 -542 384 -250 368
-265 949 -34 1333 l43 72 -24 38 c-106 170 -169 385 -180 609 -25 523 247 983
663 1119 138 45 120 44 1302 45 l1122 1 0 -390z"/>
</g>
</svg>
