<?xml version="1.0" encoding="UTF-8" standalone="no"?>
<!-- Generator: Adobe Illustrator 13.0.0, SVG Export Plug-In . SVG Version: 6.00 Build 14948)  -->

<svg
   xmlns:ns="&amp;#38;ns_ai;"
   xmlns:dc="http://purl.org/dc/elements/1.1/"
   xmlns:cc="http://creativecommons.org/ns#"
   xmlns:rdf="http://www.w3.org/1999/02/22-rdf-syntax-ns#"
   xmlns:svg="http://www.w3.org/2000/svg"
   xmlns="http://www.w3.org/2000/svg"
   xmlns:sodipodi="http://sodipodi.sourceforge.net/DTD/sodipodi-0.dtd"
   xmlns:inkscape="http://www.inkscape.org/namespaces/inkscape"
   version="1.1"
   ns:viewOrigin="0 255"
   ns:rulerOrigin="0 0"
   ns:pageBounds="0 300 255 0"
   x="0px"
   y="0px"
   width="1000"
   height="837.92999"
   viewBox="0 0 1000 837.93"
   enable-background="new 0 0 300 255"
   xml:space="preserve"
   id="svg8426"
   sodipodi:docname="NASA (Print).svg"
   inkscape:version="0.92.3 (2405546, 2018-03-11)"><metadata
   id="metadata8432"><rdf:RDF><cc:Work
       rdf:about=""><dc:format>image/svg+xml</dc:format><dc:type
         rdf:resource="http://purl.org/dc/dcmitype/StillImage" /><dc:title></dc:title></cc:Work></rdf:RDF></metadata><defs
   id="defs8430">
	

		
	
			
		
				
				
				
				
				
				
				
				
				
				
				
				
				
				
				
				
				
				
				
				
				
				
				
				
				
				
				
				
				
				
				
				
				
				
				
				
				
				
				
				
				
				
				
				
				
				
				
				
				
				
				
				
				
				
				
				
			</defs><sodipodi:namedview
   pagecolor="#ffffff"
   bordercolor="#666666"
   borderopacity="1"
   objecttolerance="10"
   gridtolerance="10"
   guidetolerance="10"
   inkscape:pageopacity="0"
   inkscape:pageshadow="2"
   inkscape:window-width="1360"
   inkscape:window-height="706"
   id="namedview8428"
   showgrid="false"
   inkscape:zoom="0.3272102"
   inkscape:cx="680.47285"
   inkscape:cy="419.15381"
   inkscape:window-x="-8"
   inkscape:window-y="-8"
   inkscape:window-maximized="1"
   inkscape:current-layer="svg8426"
   inkscape:lockguides="false" />

<path
   style="color:#000000;font-style:normal;font-variant:normal;font-weight:normal;font-stretch:normal;font-size:medium;line-height:normal;font-family:sans-serif;font-variant-ligatures:normal;font-variant-position:normal;font-variant-caps:normal;font-variant-numeric:normal;font-variant-alternates:normal;font-feature-settings:normal;text-indent:0;text-align:start;text-decoration:none;text-decoration-line:none;text-decoration-style:solid;text-decoration-color:#000000;letter-spacing:normal;word-spacing:normal;text-transform:none;writing-mode:lr-tb;direction:ltr;text-orientation:mixed;dominant-baseline:auto;baseline-shift:baseline;text-anchor:start;white-space:normal;shape-padding:0;clip-rule:nonzero;display:inline;overflow:visible;visibility:visible;opacity:1;isolation:auto;mix-blend-mode:normal;color-interpolation:sRGB;color-interpolation-filters:linearRGB;solid-color:#000000;solid-opacity:1;vector-effect:none;fill-opacity:1;fill-rule:nonzero;stroke:none;stroke-width:10.04673195;stroke-linecap:butt;stroke-linejoin:miter;stroke-miterlimit:4;stroke-dasharray:none;stroke-dashoffset:0;stroke-opacity:1;color-rendering:auto;image-rendering:auto;shape-rendering:auto;text-rendering:auto;enable-background:accumulate"
   d="M 463.47423,-3.0007422e-4 C 233.61914,-3.0007422e-4 44.48591,189.1328 44.48591,418.942 c 0,229.8392 189.13323,418.988 418.98832,418.988 229.7794,0 418.94174,-189.1484 418.94174,-418.988 0,-229.8097 -189.16234,-418.94230007422 -418.94174,-418.94230007422 z m 0,10.05380007422 c 224.2661,0 408.8888,184.5921 408.8888,408.8885 0,224.3272 -184.6227,408.934 -408.8888,408.934 -224.34415,0 -408.95634,-184.6064 -408.95634,-408.934 0,-224.2968 184.61219,-408.8885 408.95634,-408.8885 z"
   id="path9468"
   inkscape:connector-curvature="0"
   inkscape:export-xdpi="96"
   inkscape:export-ydpi="96" /><path
   inkscape:connector-curvature="0"
   id="path9470"
   style="opacity:1;fill-opacity:1;fill-rule:nonzero;stroke:none;stroke-width:15.52817822"
   d="m 469.18433,42.6393 c 0,1.8471 -1.5373,3.3692 -3.38553,3.3692 -1.8634,0 -3.4158,-1.5221 -3.4158,-3.3692 0,-1.8634 1.5524,-3.3704 3.4158,-3.3704 1.84823,0 3.38553,1.507 3.38553,3.3704"
   inkscape:export-xdpi="96"
   inkscape:export-ydpi="96" /><path
   inkscape:connector-curvature="0"
   id="path9472"
   style="opacity:1;fill-opacity:1;fill-rule:nonzero;stroke:none;stroke-width:15.52817822"
   d="m 492.5232,93.7262 c 0,2.299 -1.92513,4.1624 -4.1775,4.1624 -2.28263,0 -4.16117,-1.8634 -4.16117,-4.1624 0,-2.2663 1.87854,-4.1611 4.16117,-4.1611 2.25237,0 4.1775,1.8948 4.1775,4.1611"
   inkscape:export-xdpi="96"
   inkscape:export-ydpi="96" /><path
   inkscape:connector-curvature="0"
   id="path9474"
   style="opacity:1;fill-opacity:1;fill-rule:nonzero;stroke:none;stroke-width:15.52817822"
   d="m 553.17623,177.2524 c 0,2.2675 -1.86336,4.1308 -4.09943,4.1308 -2.3292,0 -4.20773,-1.8633 -4.20773,-4.1308 0,-2.2827 1.87853,-4.1612 4.20773,-4.1612 2.23607,0 4.09943,1.8785 4.09943,4.1612"
   inkscape:export-xdpi="96"
   inkscape:export-ydpi="96" /><path
   inkscape:connector-curvature="0"
   id="path9476"
   style="opacity:1;fill-opacity:1;fill-rule:nonzero;stroke:none;stroke-width:15.52817822"
   d="m 455.64337,122.5155 c 0,1.8634 -1.4907,3.3855 -3.33777,3.3855 -1.84827,0 -3.3704,-1.5221 -3.3704,-3.3855 0,-1.8471 1.52213,-3.3692 3.3704,-3.3692 1.84707,0 3.33777,1.5221 3.33777,3.3692"
   inkscape:export-xdpi="96"
   inkscape:export-ydpi="96" /><path
   inkscape:connector-curvature="0"
   id="path9478"
   style="opacity:1;fill-opacity:1;fill-rule:nonzero;stroke:none;stroke-width:15.52817822"
   d="m 491.9793,141.7246 c 0,1.8471 -1.4907,3.3692 -3.33777,3.3692 -1.8634,0 -3.3704,-1.5221 -3.3704,-3.3692 0,-1.8482 1.507,-3.3704 3.3704,-3.3704 1.84707,0 3.33777,1.5222 3.33777,3.3704"
   inkscape:export-xdpi="96"
   inkscape:export-ydpi="96" /><path
   inkscape:connector-curvature="0"
   id="path9480"
   style="opacity:1;fill-opacity:1;fill-rule:nonzero;stroke:none;stroke-width:15.52817822"
   d="m 444.7426,88.0278 c 0,2.2675 -1.86337,4.146 -4.11457,4.146 -2.3141,0 -4.16116,-1.8785 -4.16116,-4.146 0,-2.2827 1.84706,-4.146 4.16116,-4.146 2.2512,0 4.11457,1.8633 4.11457,4.146"
   inkscape:export-xdpi="96"
   inkscape:export-ydpi="96" /><path
   inkscape:connector-curvature="0"
   id="path9482"
   style="opacity:1;fill-opacity:1;fill-rule:nonzero;stroke:none;stroke-width:15.52817822"
   d="m 389.78913,121.4755 c 0,1.8482 -1.4907,3.3692 -3.3704,3.3692 -1.84706,0 -3.3692,-1.521 -3.3692,-3.3692 0,-1.8483 1.52214,-3.3692 3.3692,-3.3692 1.8797,0 3.3704,1.5209 3.3704,3.3692"
   inkscape:export-xdpi="96"
   inkscape:export-ydpi="96" /><path
   inkscape:connector-curvature="0"
   id="path9484"
   style="opacity:1;fill-opacity:1;fill-rule:nonzero;stroke:none;stroke-width:15.52817822"
   d="m 399.66507,128.2302 c 0,1.8483 -1.5373,3.3693 -3.3704,3.3693 -1.84707,0 -3.38437,-1.521 -3.38437,-3.3693 0,-1.8482 1.5373,-3.3855 3.38437,-3.3855 1.8331,0 3.3704,1.5373 3.3704,3.3855"
   inkscape:export-xdpi="96"
   inkscape:export-ydpi="96" /><path
   inkscape:connector-curvature="0"
   id="path9486"
   style="opacity:1;fill-opacity:1;fill-rule:nonzero;stroke:none;stroke-width:15.52817822"
   d="m 409.4944,134.9699 c 0,1.847 -1.5373,3.3843 -3.3704,3.3843 -1.86337,0 -3.36923,-1.5373 -3.36923,-3.3843 0,-1.8483 1.50586,-3.3704 3.36923,-3.3704 1.8331,0 3.3704,1.5221 3.3704,3.3704"
   inkscape:export-xdpi="96"
   inkscape:export-ydpi="96" /><path
   inkscape:connector-curvature="0"
   id="path9488"
   style="opacity:1;fill-opacity:1;fill-rule:nonzero;stroke:none;stroke-width:15.52817822"
   d="m 394.46273,147.9355 c 0,1.8634 -1.5373,3.3692 -3.36923,3.3692 -1.84823,0 -3.38553,-1.5058 -3.38553,-3.3692 0,-1.8319 1.5373,-3.3541 3.38553,-3.3541 1.83193,0 3.36923,1.5222 3.36923,3.3541"
   inkscape:export-xdpi="96"
   inkscape:export-ydpi="96" /><path
   inkscape:connector-curvature="0"
   id="path9490"
   style="opacity:1;fill-opacity:1;fill-rule:nonzero;stroke:none;stroke-width:15.52817822"
   d="m 316.13899,202.9204 c 0,1.8483 -1.52216,3.3856 -3.37039,3.3856 -1.86338,0 -3.38437,-1.5373 -3.38437,-3.3856 0,-1.847 1.52099,-3.3692 3.38437,-3.3692 1.84823,0 3.37039,1.5222 3.37039,3.3692"
   inkscape:export-xdpi="96"
   inkscape:export-ydpi="96" /><path
   inkscape:connector-curvature="0"
   id="path9492"
   style="opacity:1;fill-opacity:1;fill-rule:nonzero;stroke:none;stroke-width:15.52817822"
   d="m 330.65705,220.5608 c 0,1.832 -1.50584,3.3693 -3.36922,3.3693 -1.84825,0 -3.38552,-1.5373 -3.38552,-3.3693 0,-1.8482 1.53727,-3.3855 3.38552,-3.3855 1.86338,0 3.36922,1.5373 3.36922,3.3855"
   inkscape:export-xdpi="96"
   inkscape:export-ydpi="96" /><path
   inkscape:connector-curvature="0"
   id="path9494"
   style="opacity:1;fill-opacity:1;fill-rule:nonzero;stroke:none;stroke-width:15.52817822"
   d="m 319.24384,505.3321 c 0,1.8482 -1.52099,3.3692 -3.38437,3.3692 -1.8331,0 -3.37037,-1.521 -3.37037,-3.3692 0,-1.8634 1.53727,-3.3692 3.37037,-3.3692 1.86338,0 3.38437,1.5058 3.38437,3.3692"
   inkscape:export-xdpi="96"
   inkscape:export-ydpi="96" /><path
   inkscape:connector-curvature="0"
   id="path9496"
   style="opacity:1;fill-opacity:1;fill-rule:nonzero;stroke:none;stroke-width:15.52817822"
   d="m 321.325,583.9051 c 0,2.2826 -1.89481,4.1611 -4.16114,4.1611 -2.26751,0 -4.14604,-1.8785 -4.14604,-4.1611 0,-2.2675 1.87853,-4.1309 4.14604,-4.1309 2.26633,0 4.16114,1.8634 4.16114,4.1309"
   inkscape:export-xdpi="96"
   inkscape:export-ydpi="96" /><path
   inkscape:connector-curvature="0"
   id="path9498"
   style="opacity:1;fill-opacity:1;fill-rule:nonzero;stroke:none;stroke-width:15.52817822"
   d="m 276.72846,624.1227 c 0,1.8482 -1.55359,3.3692 -3.41697,3.3692 -1.8005,0 -3.33778,-1.521 -3.33778,-3.3692 0,-1.8634 1.53728,-3.3693 3.33778,-3.3693 1.86338,0 3.41697,1.5059 3.41697,3.3693"
   inkscape:export-xdpi="96"
   inkscape:export-ydpi="96" /><path
   inkscape:connector-curvature="0"
   id="path9500"
   style="opacity:1;fill-opacity:1;fill-rule:nonzero;stroke:none;stroke-width:15.52817822"
   d="m 223.26455,640.4587 c 0,2.2664 -1.84823,4.1461 -4.13087,4.1461 -2.29779,0 -4.12973,-1.8797 -4.12973,-4.1461 0,-2.2826 1.83194,-4.146 4.12973,-4.146 2.28264,0 4.13087,1.8634 4.13087,4.146"
   inkscape:export-xdpi="96"
   inkscape:export-ydpi="96" /><path
   inkscape:connector-curvature="0"
   id="path9502"
   style="opacity:1;fill-opacity:1;fill-rule:nonzero;stroke:none;stroke-width:15.52817822"
   d="m 212.36377,604.1379 c 0,2.2826 -1.83192,4.146 -4.11458,4.146 -2.31408,0 -4.16233,-1.8634 -4.16233,-4.146 0,-2.2675 1.84825,-4.1309 4.16233,-4.1309 2.28266,0 4.11458,1.8634 4.11458,4.1309"
   inkscape:export-xdpi="96"
   inkscape:export-ydpi="96" /><path
   inkscape:connector-curvature="0"
   id="path9504"
   style="opacity:1;fill-opacity:1;fill-rule:nonzero;stroke:none;stroke-width:15.52817822"
   d="m 206.16803,627.2287 c 0,1.8634 -1.53728,3.3541 -3.36922,3.3541 -1.84825,0 -3.38555,-1.4907 -3.38555,-3.3541 0,-1.8331 1.5373,-3.3704 3.38555,-3.3704 1.83194,0 3.36922,1.5373 3.36922,3.3704"
   inkscape:export-xdpi="96"
   inkscape:export-ydpi="96" /><path
   inkscape:connector-curvature="0"
   id="path9506"
   style="opacity:1;fill-opacity:1;fill-rule:nonzero;stroke:none;stroke-width:15.52817822"
   d="m 166.24508,608.051 c 0,1.8319 -1.5373,3.3541 -3.4158,3.3541 -1.84825,0 -3.3704,-1.5222 -3.3704,-3.3541 0,-1.8482 1.52215,-3.3855 3.3704,-3.3855 1.8785,0 3.4158,1.5373 3.4158,3.3855"
   inkscape:export-xdpi="96"
   inkscape:export-ydpi="96" /><path
   inkscape:connector-curvature="0"
   id="path9508"
   style="opacity:1;fill-opacity:1;fill-rule:nonzero;stroke:none;stroke-width:15.52817822"
   d="m 305.76577,672.8967 c 0,1.832 -1.52214,3.3541 -3.35408,3.3541 -1.84824,0 -3.38553,-1.5221 -3.38553,-3.3541 0,-1.8785 1.53729,-3.3855 3.38553,-3.3855 1.83194,0 3.35408,1.507 3.35408,3.3855"
   inkscape:export-xdpi="96"
   inkscape:export-ydpi="96" /><path
   inkscape:connector-curvature="0"
   id="path9510"
   style="opacity:1;fill-opacity:1;fill-rule:nonzero;stroke:none;stroke-width:15.52817822"
   d="m 347.75357,642.0112 c 0,2.2675 -1.84707,4.1611 -4.146,4.1611 -2.23607,0 -4.1146,-1.8936 -4.1146,-4.1611 0,-2.2827 1.87853,-4.1612 4.1146,-4.1612 2.29893,0 4.146,1.8785 4.146,4.1612"
   inkscape:export-xdpi="96"
   inkscape:export-ydpi="96" /><path
   inkscape:connector-curvature="0"
   id="path9512"
   style="opacity:1;fill-opacity:1;fill-rule:nonzero;stroke:none;stroke-width:15.52817822"
   d="m 352.44347,681.7012 c 0,1.8482 -1.52214,3.3692 -3.3855,3.3692 -1.8634,0 -3.36924,-1.521 -3.36924,-3.3692 0,-1.8634 1.50584,-3.3855 3.36924,-3.3855 1.86336,0 3.3855,1.5221 3.3855,3.3855"
   inkscape:export-xdpi="96"
   inkscape:export-ydpi="96" /><path
   inkscape:connector-curvature="0"
   id="path9514"
   style="opacity:1;fill-opacity:1;fill-rule:nonzero;stroke:none;stroke-width:15.52817822"
   d="m 525.1941,643.828 c 0,1.8633 -1.53733,3.3855 -3.36923,3.3855 -1.84824,0 -3.38557,-1.5222 -3.38557,-3.3855 0,-1.8483 1.53733,-3.3693 3.38557,-3.3693 1.8319,0 3.36923,1.521 3.36923,3.3693"
   inkscape:export-xdpi="96"
   inkscape:export-ydpi="96" /><path
   inkscape:connector-curvature="0"
   id="path9516"
   style="opacity:1;fill-opacity:1;fill-rule:nonzero;stroke:none;stroke-width:15.52817822"
   d="m 444.7426,672.3528 c 0,1.8483 -1.521,3.3704 -3.36923,3.3704 -1.8168,0 -3.3541,-1.5221 -3.3541,-3.3704 0,-1.847 1.5373,-3.3692 3.3541,-3.3692 1.84823,0 3.36923,1.5222 3.36923,3.3692"
   inkscape:export-xdpi="96"
   inkscape:export-ydpi="96" /><path
   inkscape:connector-curvature="0"
   id="path9518"
   style="opacity:1;fill-opacity:1;fill-rule:nonzero;stroke:none;stroke-width:15.52817822"
   d="m 661.06603,713.3321 c 0,1.8634 -1.52216,3.3855 -3.38553,3.3855 -1.83193,0 -3.36923,-1.5221 -3.36923,-3.3855 0,-1.8482 1.53726,-3.3692 3.36923,-3.3692 1.86333,0 3.38553,1.521 3.38553,3.3692"
   inkscape:export-xdpi="96"
   inkscape:export-ydpi="96" /><path
   inkscape:connector-curvature="0"
   id="path9520"
   style="opacity:1;fill-opacity:1;fill-rule:nonzero;stroke:none;stroke-width:15.52817822"
   d="m 678.7367,553.8266 c 0,2.2978 -1.89367,4.1612 -4.1763,4.1612 -2.28263,0 -4.16233,-1.8634 -4.16233,-4.1612 0,-2.2675 1.8797,-4.1309 4.16233,-4.1309 2.28263,0 4.1763,1.8634 4.1763,4.1309"
   inkscape:export-xdpi="96"
   inkscape:export-ydpi="96" /><path
   inkscape:connector-curvature="0"
   id="path9522"
   style="opacity:1;fill-opacity:1;fill-rule:nonzero;stroke:none;stroke-width:15.52817822"
   d="m 645.52193,576.3886 c 0,1.8634 -1.50583,3.3856 -3.36923,3.3856 -1.84823,0 -3.3855,-1.5222 -3.3855,-3.3856 0,-1.847 1.53723,-3.3692 3.3855,-3.3692 1.8634,0 3.36923,1.5222 3.36923,3.3692"
   inkscape:export-xdpi="96"
   inkscape:export-ydpi="96" /><path
   inkscape:connector-curvature="0"
   id="path9524"
   style="opacity:1;fill-opacity:1;fill-rule:nonzero;stroke:none;stroke-width:15.52817822"
   d="m 678.194,582.8802 c 0,2.2663 -1.84823,4.146 -4.146,4.146 -2.2524,0 -4.16237,-1.8797 -4.16237,-4.146 0,-2.2675 1.90997,-4.1309 4.16237,-4.1309 2.29773,0 4.146,1.8634 4.146,4.1309"
   inkscape:export-xdpi="96"
   inkscape:export-ydpi="96" /><path
   inkscape:connector-curvature="0"
   id="path9526"
   style="opacity:1;fill-opacity:1;fill-rule:nonzero;stroke:none;stroke-width:15.52817822"
   d="m 645.52193,623.0827 c 0,1.847 -1.50583,3.3692 -3.36923,3.3692 -1.84823,0 -3.3855,-1.5222 -3.3855,-3.3692 0,-1.8483 1.53723,-3.3541 3.3855,-3.3541 1.8634,0 3.36923,1.5058 3.36923,3.3541"
   inkscape:export-xdpi="96"
   inkscape:export-ydpi="96" /><path
   inkscape:connector-curvature="0"
   id="path9528"
   style="opacity:1;fill-opacity:1;fill-rule:nonzero;stroke:none;stroke-width:15.52817822"
   d="m 730.05773,531.2645 c 0,1.8471 -1.4907,3.3541 -3.36923,3.3541 -1.86337,0 -3.37043,-1.507 -3.37043,-3.3541 0,-1.8482 1.50703,-3.3703 3.37043,-3.3703 1.87853,0 3.36923,1.5221 3.36923,3.3703"
   inkscape:export-xdpi="96"
   inkscape:export-ydpi="96" /><path
   inkscape:connector-curvature="0"
   id="path9530"
   style="opacity:1;fill-opacity:1;fill-rule:nonzero;stroke:none;stroke-width:15.52817822"
   d="m 738.36493,551.7617 c 0,2.2512 -1.84706,4.1612 -4.16116,4.1612 -2.2512,0 -4.14604,-1.91 -4.14604,-4.1612 0,-2.2675 1.89484,-4.1623 4.14604,-4.1623 2.3141,0 4.16116,1.8948 4.16116,4.1623"
   inkscape:export-xdpi="96"
   inkscape:export-ydpi="96" /><path
   inkscape:connector-curvature="0"
   id="path9532"
   style="opacity:1;fill-opacity:1;fill-rule:nonzero;stroke:none;stroke-width:15.52817822"
   d="m 796.45587,576.1406 c 0,2.2826 -1.87857,4.146 -4.16117,4.146 -2.2512,0 -4.1146,-1.8634 -4.1146,-4.146 0,-2.2827 1.8634,-4.1612 4.1146,-4.1612 2.2826,0 4.16117,1.8785 4.16117,4.1612"
   inkscape:export-xdpi="96"
   inkscape:export-ydpi="96" /><path
   inkscape:connector-curvature="0"
   id="path9534"
   style="opacity:1;fill-opacity:1;fill-rule:nonzero;stroke:none;stroke-width:15.52817822"
   d="m 737.3249,619.4491 c 0,1.847 -1.53727,3.3843 -3.36923,3.3843 -1.8482,0 -3.3855,-1.5373 -3.3855,-3.3843 0,-1.8483 1.5373,-3.3704 3.3855,-3.3704 1.83196,0 3.36923,1.5221 3.36923,3.3704"
   inkscape:export-xdpi="96"
   inkscape:export-ydpi="96" /><path
   inkscape:connector-curvature="0"
   id="path9536"
   style="opacity:1;fill-opacity:1;fill-rule:nonzero;stroke:none;stroke-width:15.52817822"
   d="m 774.65427,584.1846 c 0,1.8319 -1.521,3.3692 -3.32264,3.3692 -1.86336,0 -3.3855,-1.5373 -3.3855,-3.3692 0,-1.8797 1.5221,-3.3855 3.3855,-3.3855 1.80164,0 3.32264,1.5058 3.32264,3.3855"
   inkscape:export-xdpi="96"
   inkscape:export-ydpi="96" /><path
   inkscape:connector-curvature="0"
   id="path9538"
   style="opacity:1;fill-opacity:1;fill-rule:nonzero;stroke:none;stroke-width:15.52817822"
   d="m 767.94613,638.6256 c 0,1.8634 -1.52103,3.3856 -3.36926,3.3856 -1.86337,0 -3.3692,-1.5222 -3.3692,-3.3856 0,-1.8319 1.5058,-3.3541 3.3692,-3.3541 1.84823,0 3.36926,1.5222 3.36926,3.3541"
   inkscape:export-xdpi="96"
   inkscape:export-ydpi="96" /><path
   inkscape:connector-curvature="0"
   id="path9540"
   style="opacity:1;fill-opacity:1;fill-rule:nonzero;stroke:none;stroke-width:15.52817822"
   d="m 541.82477,84.1298 c 0.55903,-2.1266 2.23606,-3.7733 4.37896,-4.2392 l 1.196,-8.8813 1.77024,8.9442 c 2.06486,0.6056 3.6802,2.3129 4.17746,4.4256 l 8.94424,1.288 -9.02227,1.5839 c -0.57067,2.066 -2.2512,3.6499 -4.33237,4.1775 l -1.5373,9.1305 -1.50583,-9.2086 c -2.01947,-0.5939 -3.6499,-2.2046 -4.1309,-4.2694 l -8.66473,-1.4139 8.72646,-1.5373"
   inkscape:export-xdpi="96"
   inkscape:export-ydpi="96" /><path
   inkscape:connector-curvature="0"
   id="path9542"
   style="opacity:1;fill-opacity:1;fill-rule:nonzero;stroke:none;stroke-width:15.52817822"
   d="m 309.21303,720.4281 c 0.59396,-2.1115 2.31408,-3.7734 4.45698,-4.2392 l 1.1949,-8.8814 1.73993,8.9746 c 2.06485,0.5706 3.68017,2.2826 4.12971,4.3952 l 9.02227,1.2881 -9.08399,1.6001 c -0.59395,2.0498 -2.20461,3.6639 -4.28578,4.1612 l -1.52214,9.1457 -1.5373,-9.2074 c -2.04972,-0.6056 -3.61729,-2.2361 -4.12973,-4.2858 l -8.63443,-1.4138 8.64958,-1.5373"
   inkscape:export-xdpi="96"
   inkscape:export-ydpi="96" /><path
   inkscape:connector-curvature="0"
   id="path9544"
   style="opacity:1;fill-opacity:1;fill-rule:nonzero;stroke:none;stroke-width:15.52817822"
   d="m 736.93713,638.3776 c 0.59394,-2.0963 2.3129,-3.742 4.45577,-4.2241 l 1.1297,-8.8814 1.73877,8.9594 c 2.0963,0.594 3.69533,2.2978 4.17746,4.4256 l 8.99084,1.2729 -9.084,1.6002 c -0.54737,2.0497 -2.23607,3.6487 -4.27064,4.1611 l -1.55243,9.1306 -1.507,-9.2086 c -2.04973,-0.5939 -3.60217,-2.2197 -4.12973,-4.2695 l -8.69617,-1.4138 8.74277,-1.5524"
   inkscape:export-xdpi="96"
   inkscape:export-ydpi="96" /><path
   inkscape:connector-curvature="0"
   id="path9546"
   style="opacity:1;fill-opacity:1;fill-rule:nonzero;stroke:none;stroke-width:15.52817822"
   d="m 770.83437,546.9007 c 0.51243,-2.1266 2.23603,-3.742 4.37893,-4.2392 l 1.19607,-8.8814 1.73876,8.9745 c 2.08117,0.594 3.68017,2.2827 4.13084,4.4256 l 9.0223,1.274 -9.08397,1.599 c -0.59397,2.0183 -2.2058,3.6488 -4.28583,4.1309 l -1.5221,9.1457 -1.55247,-9.1922 c -2.01943,-0.5707 -3.60327,-2.221 -4.05283,-4.2707 l -8.6962,-1.4127 8.72646,-1.5535"
   inkscape:export-xdpi="96"
   inkscape:export-ydpi="96" /><path
   inkscape:connector-curvature="0"
   id="path9548"
   style="opacity:1;fill-opacity:1;fill-rule:nonzero;stroke:none;stroke-width:15.52817822"
   d="m 350.7513,208.9764 c 0.57067,-2.1266 2.2512,-3.757 4.39407,-4.2392 l 1.17976,-8.8813 1.78654,8.9594 c 2.08,0.5939 3.66386,2.2977 4.1297,4.4255 l 8.99083,1.2729 -9.0374,1.6002 c -0.59397,2.0497 -2.23607,3.6487 -4.3475,4.1612 l -1.52217,9.1305 -1.53726,-9.2086 c -2.00314,-0.5939 -3.58704,-2.2197 -4.08317,-4.2694 l -8.68103,-1.4139 8.72763,-1.5373"
   inkscape:export-xdpi="96"
   inkscape:export-ydpi="96" /><path
   inkscape:connector-curvature="0"
   style="opacity:1;fill-opacity:1;fill-rule:nonzero;stroke:none;stroke-width:15.52817822"
   d="m 346,437.6503 -3.52539,10.2383 c 21.77246,33.009 43.54095,61.2454 65.99414,88.3145 0,0 47.71905,77.7952 67.43945,60.1699 17.45407,-15.6524 -32.17381,-32.1734 -57.67187,-65.125 C 396.41209,502.9996 370.56434,473.611 346,437.6503 Z"
   id="path9550" /><path
   inkscape:connector-curvature="0"
   style="opacity:1;fill-opacity:1;fill-rule:nonzero;stroke:none;stroke-width:15.52817822"
   d="m 1000,42.5293 c -66.2432,95.0953 -181.38459,167.845 -314.80273,227.0703 -21.90986,9.7361 -44.36449,19.0835 -67.17579,28.1523 -13.36623,5.308 -26.91969,10.5247 -40.60742,15.6738 4.93272,6.1557 9.74774,12.3597 14.44727,18.5918 6.61968,0.7519 13.23564,2.0767 19.68359,3.9903 l 11.89258,-8.2207 c 1.77419,-1.2265 3.89734,-1.8465 6.05273,-1.7676 5.24597,0.1923 9.45045,4.4078 9.62891,9.6543 l 0.4082,12.0078 c 18.26919,-7.1385 36.32017,-14.7252 54.07032,-22.8496 C 820.13753,266.9274 931.5207,182.0965 1000,42.5293 Z M 549.78516,323.664 c -38.06463,13.894 -76.99759,27.3168 -116,40.5606 l 17.02929,42.9316 c 17.53093,-4.5947 35.09022,-9.3729 52.6211,-14.3672 0.13242,-12.5758 4.89007,-23.6826 11.60742,-32.3125 7.65324,-9.8322 17.67758,-16.8351 27.37695,-21.4238 4.93672,-2.339 10.21723,-4.1296 15.7207,-5.4004 -2.77307,-3.375 -5.56085,-6.6981 -8.35546,-9.9883 z m 69.96679,30.9824 -0.78125,0.5391 c -0.55184,0.3769 -1.14007,0.6975 -1.75586,0.957 0.85201,-0.3134 1.70546,-0.6241 2.55664,-0.9394 z m -279.36523,41.2051 c -2.493,0.8485 -4.95323,1.7018 -7.44141,2.5508 l 1.02344,1.8496 -11.28516,3.8652 c -2.66869,0.9139 -5.336,1.8247 -7.98242,2.7344 l -7.80469,2.6836 -1.06054,-1.8437 c -11.58143,4.0005 -23.08924,8.0128 -34.4961,12.0468 v 31.8536 c 18.70031,-4.6896 37.75638,-9.336 56.98828,-14.002 z m -160.2832,57.7207 c -5.46321,2.148 -10.88832,4.3072 -16.26563,6.4785 v 15.0489 l 3.94727,4.705 c 7.80341,-2.3731 15.70078,-4.7033 23.69336,-6.9921 z m -53.75,22.1582 C 79.1435,496.2243 36.2519,517.9557 0,541.7617 l 10.66797,3.7109 c 26.38505,-16.0677 56.08846,-29.8979 88.3125,-42.2734 z"
   id="path9552" /><path
   inkscape:connector-curvature="0"
   id="path9554"
   style="opacity:1;fill-opacity:1;fill-rule:nonzero;stroke:none;stroke-width:15.52817822"
   d="m 343.5144,344.3208 h 74.02283 l 52.99807,133.6044 17.73353,17.7488 h -96.3531 l 17.68697,-17.7488 -6.2889,-16.2894 h -53.15297 l -5.49696,18.6187 12.70243,15.4195 h -50.29616 l 17.68699,-17.7488 34.13017,-118.1383 z m 50.3579,93.9144 -21.39747,-54.2407 -15.699,54.2407 h 37.09647"
   inkscape:export-xdpi="96"
   inkscape:export-ydpi="96" /><path
   inkscape:connector-curvature="0"
   style="opacity:1;fill-opacity:1;fill-rule:nonzero;stroke:none;stroke-width:15.52817822"
   d="m 687.30859,344.3203 12.45118,10.6093 c 5.0762,-3.5424 10.07369,-7.0784 15.01367,-10.6093 z m 63.36133,0 c -16.60767,12.0281 -33.66389,24.0076 -51.13281,35.9785 l -28.19141,97.6269 -17.6875,17.7481 h 50.25 L 691.25195,480.2539 696.75,461.6367 h 53.15234 l 6.27344,16.289 -17.67187,17.7481 h 96.33789 l -17.68555,-17.7481 -53.0293,-133.6054 z m -31.60547,39.6738 21.39649,54.2402 h -37.09571 z"
   id="path9556" /><path
   inkscape:connector-curvature="0"
   id="path9558"
   style="opacity:1;fill-opacity:1;fill-rule:nonzero;stroke:none;stroke-width:15.52817822"
   d="m 243.10958,438.5916 c 0,-6.5521 0,-78.8047 0,-78.8047 l -15.37291,-15.4661 h 51.22786 l -15.38921,15.4661 v 118.1383 l 17.687,17.7488 h -67.25295 l -57.93486,-98.0139 c 0,3.7419 0,80.2651 0,80.2651 l 14.89075,17.7488 h -53.52564 l 17.687,-17.7488 V 359.7869 l -15.34147,-15.4661 h 66.97228 l 56.35215,94.2708"
   inkscape:export-xdpi="96"
   inkscape:export-ydpi="96" /><path
   style="opacity:1;fill-opacity:1;fill-rule:nonzero;stroke:none;stroke-width:15.52817822"
   d="m 629.125,336.0117 -15.83984,10.9472 c -22.3909,-7.7947 -48.36943,-7.4989 -66.58399,1.1309 -17.00334,8.0428 -35.34221,24.9996 -33.08984,49.1152 1.94439,21.2547 16.72962,31.0426 31.74023,38.2891 18.11661,-11.7306 36.11581,-23.4013 53.87305,-35.0176 -11.91219,-4.7921 -28.87584,-11.6445 -34.65039,-14.6543 -9.02227,-4.6899 -8.02951,-19.5496 13.61719,-22.5625 19.59694,-2.7321 46.71014,12.9505 52.5332,19.8613 z m -15.03422,83.0891 c -17.03209,11.3069 -29.87033,13.9255 -46.91305,25.446 15.95508,5.7622 29.39067,10.0545 29.1211,19.8633 -0.23294,8.2757 -13.96077,14.1923 -24.58203,13.8359 -7.36259,-0.2201 -27.23435,-1.6311 -43.63868,-10.8046 l 1.28907,3.0097 c -4.69998,3.1086 -9.36053,6.2163 -14.03907,9.3242 l 1.6211,25.7383 17.64062,-12.9511 c 21.49063,7.5781 47.45341,10.7612 71.55274,2.9199 23.88274,-7.796 36.91315,-19.3246 22.96925,-54.2945 -3.89475,-9.8112 -9.59864,-17.2425 -15.02105,-22.0871 z m -100.26266,36.8327 0.54102,8.5801 c 1.62423,-1.0538 3.25232,-2.1138 4.875,-3.166 -1.93121,-1.6431 -3.75236,-3.4364 -5.41602,-5.4141 z"
   id="path9560"
   inkscape:connector-curvature="0"
   sodipodi:nodetypes="cccccccccccccccccccccccccc" /><path
   inkscape:connector-curvature="0"
   style="opacity:1;fill-opacity:1;stroke:none;stroke-width:15.52817822"
   d="m 1000,42.5293 c -70.50723,138.9748 -209.51069,243.476 -367.82031,348.2441 3.36703,5.4232 6.62209,10.8235 9.76367,16.1894 C 813.54141,293.4722 955.55296,183.9744 1000,42.5293 Z M 610.04688,405.3437 C 444.96434,513.5465 261.76187,623.7447 114.41211,774.1094 l -0.79102,14.2402 C 268.13751,641.1226 455.78388,528.887 619.74805,421.5625 c -3.12864,-5.4435 -6.36562,-10.8546 -9.70117,-16.2188 z"
   id="path9584" /><path
   inkscape:connector-curvature="0"
   style="opacity:1;fill-opacity:1;fill-rule:nonzero;stroke:none;stroke-width:15.52817822"
   d="m 320.44727,146.4472 c -84.46587,-0.4683 -81.58313,120.5389 -15.47266,239.5196 2.16042,3.8786 4.31698,7.6719 6.47656,11.4277 2.65798,-0.9137 5.32757,-1.8259 7.99219,-2.7383 -3.62323,-6.5475 -7.1545,-13.2999 -10.5918,-20.3008 C 206.1641,164.803 295.40492,99.4304 441.66406,206.3105 c 43.94553,32.0816 113.58973,98.5877 167.00586,178.4336 94.4269,141.0894 124.92379,325.1136 -51.44531,252.4883 l 0.36133,1.1309 C 744.29678,717.1994 686.32912,522.6299 664.68359,473.0488 618.02105,366.0756 501.96385,215.3902 380.45508,161.6933 356.96634,151.3095 337.02468,146.5391 320.44727,146.4472 Z"
   id="path9586" /></svg>