<svg height="512pt" viewBox="-15 0 512 512.00108" width="512pt" xmlns="http://www.w3.org/2000/svg"><path d="m365.230469 0c-62.617188 0-113.824219 49.726562-116.203125 111.777344 22.117187 13.449218 40.09375 33.460937 50.835937 57.730468 45.609375-13.375 93.429688 10.21875 111.074219 53.738282 41.464844-17.800782 70.585938-59.03125 70.585938-106.941406 0-64.132813-52.171876-116.304688-116.292969-116.304688zm0 0"/><path d="m297.953125 205.609375c-9.132813 4.917969-20.742187.144531-23.585937-10.0625-11.433594-40.863281-49.140626-69.566406-91.816407-69.566406-52.558593 0-95.3125 42.746093-95.335937 95.292969v.242187c0 9.085937-7.355469 16.441406-16.441406 16.441406h-31.425782c-21.699218 0-39.347656 17.65625-39.347656 39.347657 0 21.703124 17.648438 39.347656 39.347656 39.347656 1.96875 0 286.683594.03125 288.453125-.054688 28.386719 0 56.941407-24.621094 56.941407-58.945312 0-44.453125-47.664063-72.996094-86.789063-52.042969zm0 0"/><path d="m51.605469 409.113281c-7.871094-3.257812-16.890625.484375-20.144531 8.355469l-30.285157 73.210938c-3.257812 7.871093.484375 16.890624 8.355469 20.144531 7.871094 3.257812 16.890625-.484375 20.144531-8.355469l30.285157-73.210938c3.257812-7.871093-.484376-16.890624-8.355469-20.144531zm0 0"/><path d="m84.730469 369.375c3.257812-7.871094-.484375-16.890625-8.355469-20.144531-7.871094-3.257813-16.886719.484375-20.144531 8.355469l-5.589844 13.515624c-3.257813 7.871094.484375 16.890626 8.355469 20.148438 7.867187 3.253906 16.886718-.488281 20.144531-8.355469zm0 0"/><path d="m107.824219 457.589844c-7.871094-3.257813-16.890625.484375-20.144531 8.355468l-10.234376 24.734376c-3.253906 7.871093.484376 16.890624 8.355469 20.144531 7.871094 3.257812 16.890625-.484375 20.144531-8.355469l10.234376-24.734375c3.253906-7.871094-.484376-16.890625-8.355469-20.144531zm0 0"/><path d="m152.644531 349.230469c-7.867187-3.253907-16.886719.488281-20.144531 8.355469l-23.722656 57.355468c-3.257813 7.867188.484375 16.886719 8.355468 20.144532 7.867188 3.253906 16.890626-.488282 20.144532-8.355469l23.722656-57.355469c3.257812-7.871094-.484375-16.890625-8.355469-20.144531zm0 0"/><path d="m207.878906 409.113281c-7.871094-3.257812-16.890625.484375-20.144531 8.355469l-30.285156 73.210938c-3.257813 7.871093.484375 16.890624 8.355469 20.144531 7.871093 3.257812 16.890624-.484375 20.144531-8.355469l30.285156-73.210938c3.253906-7.871093-.484375-16.890624-8.355469-20.144531zm0 0"/><path d="m241.003906 369.375c3.257813-7.871094-.484375-16.890625-8.355468-20.144531-7.871094-3.257813-16.890626.484375-20.144532 8.355469l-5.59375 13.515624c-3.253906 7.871094.484375 16.890626 8.355469 20.148438 7.871094 3.253906 16.890625-.488281 20.144531-8.355469zm0 0"/><path d="m264.097656 457.589844c-7.871094-3.257813-16.890625.484375-20.148437 8.355468l-10.230469 24.734376c-3.257812 7.871093.484375 16.890624 8.355469 20.144531 7.871093 3.257812 16.890625-.484375 20.144531-8.355469l10.234375-24.734375c3.253906-7.871094-.488281-16.890625-8.355469-20.144531zm0 0"/><path d="m308.917969 349.230469c-7.867188-3.253907-16.886719.488281-20.144531 8.355469l-23.722657 57.355468c-3.257812 7.867188.484375 16.886719 8.355469 20.144532 7.867188 3.253906 16.886719-.488282 20.144531-8.355469l23.722657-57.355469c3.257812-7.871094-.484376-16.890625-8.355469-20.144531zm0 0"/></svg>